solid OpenSCAD_Model
  facet normal 0 0 -1
    outer loop
      vertex -38.5 13 25
      vertex -38.1176 16.6385 25
      vertex -38.1176 9.36154 25
    endloop
  endfacet
  facet normal 0 0 -1
    outer loop
      vertex -38.1176 9.36154 25
      vertex -38.1176 16.6385 25
      vertex -36.987 20.1179 25
    endloop
  endfacet
  facet normal 0 0 -1
    outer loop
      vertex -38.1176 9.36154 25
      vertex -36.987 20.1179 25
      vertex -35.1578 23.2862 25
    endloop
  endfacet
  facet normal 0 0 -1
    outer loop
      vertex -38.1176 9.36154 25
      vertex -35.1578 23.2862 25
      vertex -32.7098 26.005 25
    endloop
  endfacet
  facet normal 0 0 -1
    outer loop
      vertex -38.1176 9.36154 25
      vertex -32.7098 26.005 25
      vertex -29.75 28.1554 25
    endloop
  endfacet
  facet normal 0 0 -1
    outer loop
      vertex -38.1176 9.36154 25
      vertex -29.75 28.1554 25
      vertex -26.4078 29.6435 25
    endloop
  endfacet
  facet normal 0 0 -1
    outer loop
      vertex -38.1176 9.36154 25
      vertex -26.4078 29.6435 25
      vertex -23.5 30.2616 25
    endloop
  endfacet
  facet normal 0 0 -1
    outer loop
      vertex -38.1176 9.36154 25
      vertex -23.5 30.2616 25
      vertex -23.5 15.013 25
    endloop
  endfacet
  facet normal 0 0 -1
    outer loop
      vertex -38.1176 9.36154 25
      vertex -23.5 15.013 25
      vertex -24.75 14.4952 25
    endloop
  endfacet
  facet normal 0 0 -1
    outer loop
      vertex -38.1176 9.36154 25
      vertex -24.75 14.4952 25
      vertex -26.3033 13.3033 25
    endloop
  endfacet
  facet normal 0 0 -1
    outer loop
      vertex -26.3033 13.3033 25
      vertex -27.4952 11.75 25
      vertex -38.1176 9.36154 25
    endloop
  endfacet
  facet normal 0 0 -1
    outer loop
      vertex -27.4952 11.75 25
      vertex -28.2444 9.94114 25
      vertex -38.1176 9.36154 25
    endloop
  endfacet
  facet normal 0 0 -1
    outer loop
      vertex -28.2444 9.94114 25
      vertex -28.5 8 25
      vertex -38.1176 9.36154 25
    endloop
  endfacet
  facet normal 0 0 -1
    outer loop
      vertex -28.5 8 25
      vertex -28.2444 6.05886 25
      vertex -38.1176 9.36154 25
    endloop
  endfacet
  facet normal 0 0 -1
    outer loop
      vertex -28.2444 6.05886 25
      vertex -27.4952 4.25 25
      vertex -38.1176 9.36154 25
    endloop
  endfacet
  facet normal 0 0 -1
    outer loop
      vertex -27.4952 4.25 25
      vertex -26.3033 2.6967 25
      vertex -38.1176 9.36154 25
    endloop
  endfacet
  facet normal 0 0 -1
    outer loop
      vertex -26.3033 2.6967 25
      vertex -24.75 1.50481 25
      vertex -38.1176 9.36154 25
    endloop
  endfacet
  facet normal 0 0 -1
    outer loop
      vertex -24.75 1.50481 25
      vertex -23.5 0.987042 25
      vertex -23.5 -4.26156 25
    endloop
  endfacet
  facet normal 0 0 -1
    outer loop
      vertex -24.75 1.50481 25
      vertex -23.5 -4.26156 25
      vertex -38.1176 9.36154 25
    endloop
  endfacet
  facet normal 0 0 -1
    outer loop
      vertex -38.1176 9.36154 25
      vertex -23.5 -4.26156 25
      vertex -26.4078 -3.64349 25
    endloop
  endfacet
  facet normal 0 0 -1
    outer loop
      vertex -38.1176 9.36154 25
      vertex -26.4078 -3.64349 25
      vertex -29.75 -2.15544 25
    endloop
  endfacet
  facet normal 0 0 -1
    outer loop
      vertex -38.1176 9.36154 25
      vertex -29.75 -2.15544 25
      vertex -32.7098 -0.005034 25
    endloop
  endfacet
  facet normal 0 0 -1
    outer loop
      vertex -38.1176 9.36154 25
      vertex -32.7098 -0.005034 25
      vertex -35.1578 2.71376 25
    endloop
  endfacet
  facet normal 0 0 -1
    outer loop
      vertex -38.1176 9.36154 25
      vertex -35.1578 2.71376 25
      vertex -36.987 5.88211 25
    endloop
  endfacet
  facet normal -0.994522 0.104528 0
    outer loop
      vertex -38.5 13 25
      vertex -38.5 13 124
      vertex -38.1176 16.6385 25
    endloop
  endfacet
  facet normal -0.994522 0.104528 0
    outer loop
      vertex -38.1176 16.6385 25
      vertex -38.5 13 124
      vertex -38.1176 16.6385 124
    endloop
  endfacet
  facet normal -0.994522 -0.104528 0
    outer loop
      vertex -38.5 13 25
      vertex -38.1176 9.36154 25
      vertex -38.5 13 124
    endloop
  endfacet
  facet normal -0.994522 -0.104528 0
    outer loop
      vertex -38.5 13 124
      vertex -38.1176 9.36154 25
      vertex -38.1176 9.36154 124
    endloop
  endfacet
  facet normal -0.951057 -0.309017 0
    outer loop
      vertex -38.1176 9.36154 25
      vertex -36.987 5.88211 25
      vertex -38.1176 9.36154 124
    endloop
  endfacet
  facet normal -0.951057 -0.309017 0
    outer loop
      vertex -38.1176 9.36154 124
      vertex -36.987 5.88211 25
      vertex -36.987 5.88211 124
    endloop
  endfacet
  facet normal -0.866025 -0.5 0
    outer loop
      vertex -36.987 5.88211 25
      vertex -35.1578 2.71376 25
      vertex -36.987 5.88211 124
    endloop
  endfacet
  facet normal -0.866025 -0.5 0
    outer loop
      vertex -36.987 5.88211 124
      vertex -35.1578 2.71376 25
      vertex -35.1578 2.71376 124
    endloop
  endfacet
  facet normal -0.743145 -0.669131 0
    outer loop
      vertex -35.1578 2.71376 25
      vertex -32.7098 -0.005034 25
      vertex -35.1578 2.71376 124
    endloop
  endfacet
  facet normal -0.743145 -0.669131 0
    outer loop
      vertex -35.1578 2.71376 124
      vertex -32.7098 -0.005034 25
      vertex -32.7098 -0.005034 124
    endloop
  endfacet
  facet normal -0.587785 -0.809017 0
    outer loop
      vertex -32.7098 -0.005034 124
      vertex -32.7098 -0.005034 25
      vertex -29.75 -2.15544 25
    endloop
  endfacet
  facet normal -0.587785 -0.809017 0
    outer loop
      vertex -29.75 -2.15544 124
      vertex -32.7098 -0.005034 124
      vertex -29.75 -2.15544 25
    endloop
  endfacet
  facet normal -0.406736 -0.913546 0
    outer loop
      vertex -29.75 -2.15544 124
      vertex -29.75 -2.15544 25
      vertex -26.4078 -3.64349 25
    endloop
  endfacet
  facet normal -0.406736 -0.913546 0
    outer loop
      vertex -26.4078 -3.64349 124
      vertex -29.75 -2.15544 124
      vertex -26.4078 -3.64349 25
    endloop
  endfacet
  facet normal -0.207912 -0.978148 0
    outer loop
      vertex -26.4078 -3.64349 124
      vertex -26.4078 -3.64349 25
      vertex -23.5 -4.26156 25
    endloop
  endfacet
  facet normal -0.207912 -0.978148 0
    outer loop
      vertex -22.8292 -4.40413 32.5
      vertex -26.4078 -3.64349 124
      vertex -23.5 -4.26156 32.5
    endloop
  endfacet
  facet normal -0.207912 -0.978148 0
    outer loop
      vertex -23.5 -4.26156 32.5
      vertex -26.4078 -3.64349 124
      vertex -23.5 -4.26156 25
    endloop
  endfacet
  facet normal -0.207912 -0.978148 0
    outer loop
      vertex -22.8292 -4.40413 124
      vertex -26.4078 -3.64349 124
      vertex -22.8292 -4.40413 32.5
    endloop
  endfacet
  facet normal 1 0 0
    outer loop
      vertex -23.5 0.987042 25
      vertex -23.5 0.987042 30
      vertex -23.5 -0.70297 30
    endloop
  endfacet
  facet normal 1 0 0
    outer loop
      vertex -23.5 -4.26156 32.5
      vertex -23.5 0.987042 25
      vertex -23.5 -0.70297 30
    endloop
  endfacet
  facet normal 1 0 0
    outer loop
      vertex -23.5 -0.70297 32.5
      vertex -23.5 -4.26156 32.5
      vertex -23.5 -0.70297 30
    endloop
  endfacet
  facet normal 1 0 0
    outer loop
      vertex -23.5 -4.26156 32.5
      vertex -23.5 -4.26156 25
      vertex -23.5 0.987042 25
    endloop
  endfacet
  facet normal 0.382683 0.92388 0
    outer loop
      vertex -23.5 0.987042 30
      vertex -23.5 0.987042 25
      vertex -24.75 1.50481 30
    endloop
  endfacet
  facet normal 0.382683 0.92388 0
    outer loop
      vertex -24.75 1.50481 30
      vertex -23.5 0.987042 25
      vertex -24.75 1.50481 25
    endloop
  endfacet
  facet normal 0.608762 0.793353 0
    outer loop
      vertex -24.75 1.50481 30
      vertex -24.75 1.50481 25
      vertex -26.3033 2.6967 30
    endloop
  endfacet
  facet normal 0.608762 0.793353 0
    outer loop
      vertex -26.3033 2.6967 30
      vertex -24.75 1.50481 25
      vertex -26.3033 2.6967 25
    endloop
  endfacet
  facet normal 0.793353 0.608762 0
    outer loop
      vertex -27.4952 4.25 30
      vertex -26.3033 2.6967 30
      vertex -26.3033 2.6967 25
    endloop
  endfacet
  facet normal 0.793353 0.608762 0
    outer loop
      vertex -27.4952 4.25 25
      vertex -27.4952 4.25 30
      vertex -26.3033 2.6967 25
    endloop
  endfacet
  facet normal 0.92388 0.382683 0
    outer loop
      vertex -28.2444 6.05886 30
      vertex -27.4952 4.25 30
      vertex -27.4952 4.25 25
    endloop
  endfacet
  facet normal 0.92388 0.382683 0
    outer loop
      vertex -28.2444 6.05886 25
      vertex -28.2444 6.05886 30
      vertex -27.4952 4.25 25
    endloop
  endfacet
  facet normal 0.991445 0.130526 0
    outer loop
      vertex -28.5 8 30
      vertex -28.2444 6.05886 30
      vertex -28.2444 6.05886 25
    endloop
  endfacet
  facet normal 0.991445 0.130526 0
    outer loop
      vertex -28.5 8 25
      vertex -28.5 8 30
      vertex -28.2444 6.05886 25
    endloop
  endfacet
  facet normal 0.991445 -0.130526 0
    outer loop
      vertex -28.2444 9.94114 25
      vertex -28.2444 9.94114 30
      vertex -28.5 8 30
    endloop
  endfacet
  facet normal 0.991445 -0.130526 0
    outer loop
      vertex -28.5 8 25
      vertex -28.2444 9.94114 25
      vertex -28.5 8 30
    endloop
  endfacet
  facet normal 0.92388 -0.382683 0
    outer loop
      vertex -27.4952 11.75 25
      vertex -27.4952 11.75 30
      vertex -28.2444 9.94114 30
    endloop
  endfacet
  facet normal 0.92388 -0.382683 0
    outer loop
      vertex -28.2444 9.94114 25
      vertex -27.4952 11.75 25
      vertex -28.2444 9.94114 30
    endloop
  endfacet
  facet normal 0.793353 -0.608762 0
    outer loop
      vertex -26.3033 13.3033 25
      vertex -26.3033 13.3033 30
      vertex -27.4952 11.75 30
    endloop
  endfacet
  facet normal 0.793353 -0.608762 0
    outer loop
      vertex -27.4952 11.75 25
      vertex -26.3033 13.3033 25
      vertex -27.4952 11.75 30
    endloop
  endfacet
  facet normal 0.608762 -0.793353 0
    outer loop
      vertex -24.75 14.4952 25
      vertex -24.75 14.4952 30
      vertex -26.3033 13.3033 30
    endloop
  endfacet
  facet normal 0.608762 -0.793353 0
    outer loop
      vertex -26.3033 13.3033 25
      vertex -24.75 14.4952 25
      vertex -26.3033 13.3033 30
    endloop
  endfacet
  facet normal 0.382683 -0.92388 0
    outer loop
      vertex -23.5 15.013 25
      vertex -23.5 15.013 30
      vertex -24.75 14.4952 30
    endloop
  endfacet
  facet normal 0.382683 -0.92388 0
    outer loop
      vertex -24.75 14.4952 25
      vertex -23.5 15.013 25
      vertex -24.75 14.4952 30
    endloop
  endfacet
  facet normal 1 0 0
    outer loop
      vertex -23.5 30.2616 25
      vertex -23.5 30.2616 32.5
      vertex -23.5 26.703 32.5
    endloop
  endfacet
  facet normal 1 0 0
    outer loop
      vertex -23.5 15.013 30
      vertex -23.5 30.2616 25
      vertex -23.5 26.703 30
    endloop
  endfacet
  facet normal 1 0 0
    outer loop
      vertex -23.5 26.703 30
      vertex -23.5 30.2616 25
      vertex -23.5 26.703 32.5
    endloop
  endfacet
  facet normal 1 0 0
    outer loop
      vertex -23.5 15.013 25
      vertex -23.5 30.2616 25
      vertex -23.5 15.013 30
    endloop
  endfacet
  facet normal -0.207912 0.978148 0
    outer loop
      vertex -26.4078 29.6435 25
      vertex -26.4078 29.6435 124
      vertex -23.5 30.2616 25
    endloop
  endfacet
  facet normal -0.207912 0.978148 0
    outer loop
      vertex -23.5 30.2616 32.5
      vertex -26.4078 29.6435 124
      vertex -22.8292 30.4041 124
    endloop
  endfacet
  facet normal -0.207912 0.978148 0
    outer loop
      vertex -23.5 30.2616 25
      vertex -26.4078 29.6435 124
      vertex -23.5 30.2616 32.5
    endloop
  endfacet
  facet normal -0.207912 0.978148 0
    outer loop
      vertex -23.5 30.2616 32.5
      vertex -22.8292 30.4041 124
      vertex -22.8292 30.4041 32.5
    endloop
  endfacet
  facet normal -0.406736 0.913546 0
    outer loop
      vertex -29.75 28.1554 25
      vertex -29.75 28.1554 124
      vertex -26.4078 29.6435 25
    endloop
  endfacet
  facet normal -0.406736 0.913546 0
    outer loop
      vertex -26.4078 29.6435 25
      vertex -29.75 28.1554 124
      vertex -26.4078 29.6435 124
    endloop
  endfacet
  facet normal -0.587785 0.809017 0
    outer loop
      vertex -32.7098 26.005 25
      vertex -32.7098 26.005 124
      vertex -29.75 28.1554 25
    endloop
  endfacet
  facet normal -0.587785 0.809017 0
    outer loop
      vertex -29.75 28.1554 25
      vertex -32.7098 26.005 124
      vertex -29.75 28.1554 124
    endloop
  endfacet
  facet normal -0.743145 0.669131 0
    outer loop
      vertex -35.1578 23.2862 25
      vertex -35.1578 23.2862 124
      vertex -32.7098 26.005 25
    endloop
  endfacet
  facet normal -0.743145 0.669131 0
    outer loop
      vertex -32.7098 26.005 25
      vertex -35.1578 23.2862 124
      vertex -32.7098 26.005 124
    endloop
  endfacet
  facet normal -0.866025 0.5 0
    outer loop
      vertex -36.987 20.1179 25
      vertex -36.987 20.1179 124
      vertex -35.1578 23.2862 25
    endloop
  endfacet
  facet normal -0.866025 0.5 0
    outer loop
      vertex -35.1578 23.2862 25
      vertex -36.987 20.1179 124
      vertex -35.1578 23.2862 124
    endloop
  endfacet
  facet normal -0.951057 0.309017 0
    outer loop
      vertex -38.1176 16.6385 25
      vertex -38.1176 16.6385 124
      vertex -36.987 20.1179 25
    endloop
  endfacet
  facet normal -0.951057 0.309017 0
    outer loop
      vertex -36.987 20.1179 25
      vertex -38.1176 16.6385 124
      vertex -36.987 20.1179 124
    endloop
  endfacet
  facet normal 0 0 1
    outer loop
      vertex -38.1176 16.6385 124
      vertex -38.5 13 124
      vertex -38.1176 9.36154 124
    endloop
  endfacet
  facet normal 0 0 1
    outer loop
      vertex -35.1578 2.71376 124
      vertex -38.1176 16.6385 124
      vertex -36.987 5.88211 124
    endloop
  endfacet
  facet normal 0 0 1
    outer loop
      vertex -36.987 5.88211 124
      vertex -38.1176 16.6385 124
      vertex -38.1176 9.36154 124
    endloop
  endfacet
  facet normal 0 0 1
    outer loop
      vertex -36.5 11.5 124
      vertex -38.1176 16.6385 124
      vertex -35.1578 2.71376 124
    endloop
  endfacet
  facet normal 0 0 1
    outer loop
      vertex -14 0.875644 124
      vertex -16.6738 -0.314791 124
      vertex -12.25 -2.15544 124
    endloop
  endfacet
  facet normal 0 0 1
    outer loop
      vertex -9.67376 4.77101 124
      vertex -11.6322 2.59597 124
      vertex -6.8422 2.71376 124
    endloop
  endfacet
  facet normal 0 0 1
    outer loop
      vertex -8.21036 18.6943 124
      vertex -7.30593 15.9108 124
      vertex -3.88242 16.6385 124
    endloop
  endfacet
  facet normal 0 0 1
    outer loop
      vertex -9.67376 21.229 124
      vertex -8.21036 18.6943 124
      vertex -5.01295 20.1179 124
    endloop
  endfacet
  facet normal 0 0 1
    outer loop
      vertex -16.6738 26.3148 124
      vertex -14 25.1244 124
      vertex -12.25 28.1554 124
    endloop
  endfacet
  facet normal 0 0 1
    outer loop
      vertex -22.4634 26.9233 124
      vertex -19.5366 26.9233 124
      vertex -15.5922 29.6435 124
    endloop
  endfacet
  facet normal 0 0 1
    outer loop
      vertex -26.4078 29.6435 124
      vertex -38.1176 16.6385 124
      vertex -22.8292 30.4041 124
    endloop
  endfacet
  facet normal 0 0 1
    outer loop
      vertex -29.75 28.1554 124
      vertex -38.1176 16.6385 124
      vertex -26.4078 29.6435 124
    endloop
  endfacet
  facet normal 0 0 1
    outer loop
      vertex -32.7098 26.005 124
      vertex -38.1176 16.6385 124
      vertex -29.75 28.1554 124
    endloop
  endfacet
  facet normal 0 0 1
    outer loop
      vertex -35.1578 23.2862 124
      vertex -38.1176 16.6385 124
      vertex -32.7098 26.005 124
    endloop
  endfacet
  facet normal 0 0 1
    outer loop
      vertex -36.987 20.1179 124
      vertex -38.1176 16.6385 124
      vertex -35.1578 23.2862 124
    endloop
  endfacet
  facet normal 0 0 1
    outer loop
      vertex -32.7098 -0.005034 124
      vertex -36.5 11.5 124
      vertex -35.1578 2.71376 124
    endloop
  endfacet
  facet normal 0 0 1
    outer loop
      vertex -28 0.875644 124
      vertex -30.3678 2.59597 124
      vertex -26.4078 -3.64349 124
    endloop
  endfacet
  facet normal 0 0 1
    outer loop
      vertex -16.6738 -0.314791 124
      vertex -19.5366 -0.923307 124
      vertex -15.5922 -3.64349 124
    endloop
  endfacet
  facet normal 0 0 1
    outer loop
      vertex -8.21036 7.30569 124
      vertex -9.67376 4.77101 124
      vertex -5.01295 5.88211 124
    endloop
  endfacet
  facet normal 0 0 1
    outer loop
      vertex -14 25.1244 124
      vertex -11.6322 23.404 124
      vertex -9.29021 26.005 124
    endloop
  endfacet
  facet normal 0 0 1
    outer loop
      vertex -5.5 14.5 124
      vertex -5.5 11.5 124
      vertex -3.5 13 124
    endloop
  endfacet
  facet normal 0 0 1
    outer loop
      vertex -30.3678 23.404 124
      vertex -38.1176 16.6385 124
      vertex -32.3262 21.229 124
    endloop
  endfacet
  facet normal 0 0 1
    outer loop
      vertex -25.3262 26.3148 124
      vertex -22.4634 26.9233 124
      vertex -19.1708 30.4041 124
    endloop
  endfacet
  facet normal 0 0 1
    outer loop
      vertex -22.8292 30.4041 124
      vertex -38.1176 16.6385 124
      vertex -30.3678 23.404 124
    endloop
  endfacet
  facet normal 0 0 1
    outer loop
      vertex -22.8292 30.4041 124
      vertex -28 25.1244 124
      vertex -19.1708 30.4041 124
    endloop
  endfacet
  facet normal 0 0 1
    outer loop
      vertex -28 25.1244 124
      vertex -25.3262 26.3148 124
      vertex -19.1708 30.4041 124
    endloop
  endfacet
  facet normal 0 0 1
    outer loop
      vertex -19.1708 30.4041 124
      vertex -22.4634 26.9233 124
      vertex -15.5922 29.6435 124
    endloop
  endfacet
  facet normal 0 0 1
    outer loop
      vertex -30.3678 23.404 124
      vertex -28 25.1244 124
      vertex -22.8292 30.4041 124
    endloop
  endfacet
  facet normal 0 0 1
    outer loop
      vertex -15.5922 29.6435 124
      vertex -19.5366 26.9233 124
      vertex -12.25 28.1554 124
    endloop
  endfacet
  facet normal 0 0 1
    outer loop
      vertex -19.5366 26.9233 124
      vertex -16.6738 26.3148 124
      vertex -12.25 28.1554 124
    endloop
  endfacet
  facet normal 0 0 1
    outer loop
      vertex -12.25 28.1554 124
      vertex -14 25.1244 124
      vertex -9.29021 26.005 124
    endloop
  endfacet
  facet normal 0 0 1
    outer loop
      vertex -9.29021 26.005 124
      vertex -11.6322 23.404 124
      vertex -6.8422 23.2862 124
    endloop
  endfacet
  facet normal 0 0 1
    outer loop
      vertex -33.7896 18.6943 124
      vertex -32.3262 21.229 124
      vertex -38.1176 16.6385 124
    endloop
  endfacet
  facet normal 0 0 1
    outer loop
      vertex -6.8422 23.2862 124
      vertex -9.67376 21.229 124
      vertex -5.01295 20.1179 124
    endloop
  endfacet
  facet normal 0 0 1
    outer loop
      vertex -5.01295 20.1179 124
      vertex -8.21036 18.6943 124
      vertex -3.88242 16.6385 124
    endloop
  endfacet
  facet normal 0 0 1
    outer loop
      vertex -3.88242 16.6385 124
      vertex -7.30593 15.9108 124
      vertex -3.5 13 124
    endloop
  endfacet
  facet normal 0 0 1
    outer loop
      vertex -7.30593 15.9108 124
      vertex -5.5 14.5 124
      vertex -3.5 13 124
    endloop
  endfacet
  facet normal 0 0 1
    outer loop
      vertex -7.30593 15.9108 124
      vertex -7.15766 14.5 124
      vertex -5.5 14.5 124
    endloop
  endfacet
  facet normal 0 0 1
    outer loop
      vertex -3.5 13 124
      vertex -5.5 11.5 124
      vertex -3.88242 9.36154 124
    endloop
  endfacet
  facet normal 0 0 1
    outer loop
      vertex -5.5 11.5 124
      vertex -7.15766 11.5 124
      vertex -3.88242 9.36154 124
    endloop
  endfacet
  facet normal 0 0 1
    outer loop
      vertex -3.88242 9.36154 124
      vertex -7.30593 10.0892 124
      vertex -5.01295 5.88211 124
    endloop
  endfacet
  facet normal 0 0 1
    outer loop
      vertex -11.6322 23.404 124
      vertex -9.67376 21.229 124
      vertex -6.8422 23.2862 124
    endloop
  endfacet
  facet normal 0 0 1
    outer loop
      vertex -7.30593 10.0892 124
      vertex -8.21036 7.30569 124
      vertex -5.01295 5.88211 124
    endloop
  endfacet
  facet normal 0 0 1
    outer loop
      vertex -5.01295 5.88211 124
      vertex -9.67376 4.77101 124
      vertex -6.8422 2.71376 124
    endloop
  endfacet
  facet normal 0 0 1
    outer loop
      vertex -6.8422 2.71376 124
      vertex -11.6322 2.59597 124
      vertex -9.29021 -0.005034 124
    endloop
  endfacet
  facet normal 0 0 1
    outer loop
      vertex -9.29021 -0.005034 124
      vertex -14 0.875644 124
      vertex -12.25 -2.15544 124
    endloop
  endfacet
  facet normal 0 0 1
    outer loop
      vertex -12.25 -2.15544 124
      vertex -16.6738 -0.314791 124
      vertex -15.5922 -3.64349 124
    endloop
  endfacet
  facet normal 0 0 1
    outer loop
      vertex -15.5922 -3.64349 124
      vertex -19.5366 -0.923307 124
      vertex -19.1708 -4.40413 124
    endloop
  endfacet
  facet normal 0 0 1
    outer loop
      vertex -19.1708 -4.40413 124
      vertex -22.4634 -0.923307 124
      vertex -22.8292 -4.40413 124
    endloop
  endfacet
  facet normal 0 0 1
    outer loop
      vertex -22.4634 -0.923307 124
      vertex -25.3262 -0.314791 124
      vertex -22.8292 -4.40413 124
    endloop
  endfacet
  facet normal 0 0 1
    outer loop
      vertex -22.8292 -4.40413 124
      vertex -28 0.875644 124
      vertex -26.4078 -3.64349 124
    endloop
  endfacet
  facet normal 0 0 1
    outer loop
      vertex -26.4078 -3.64349 124
      vertex -30.3678 2.59597 124
      vertex -29.75 -2.15544 124
    endloop
  endfacet
  facet normal 0 0 1
    outer loop
      vertex -19.5366 -0.923307 124
      vertex -22.4634 -0.923307 124
      vertex -19.1708 -4.40413 124
    endloop
  endfacet
  facet normal 0 0 1
    outer loop
      vertex -30.3678 2.59597 124
      vertex -32.3262 4.77101 124
      vertex -29.75 -2.15544 124
    endloop
  endfacet
  facet normal 0 0 1
    outer loop
      vertex -25.3262 -0.314791 124
      vertex -28 0.875644 124
      vertex -22.8292 -4.40413 124
    endloop
  endfacet
  facet normal 0 0 1
    outer loop
      vertex -32.3262 4.77101 124
      vertex -33.7896 7.30569 124
      vertex -29.75 -2.15544 124
    endloop
  endfacet
  facet normal 0 0 1
    outer loop
      vertex -36.5 11.5 124
      vertex -36.5 14.5 124
      vertex -38.1176 16.6385 124
    endloop
  endfacet
  facet normal 0 0 1
    outer loop
      vertex -36.5 14.5 124
      vertex -34.8423 14.5 124
      vertex -38.1176 16.6385 124
    endloop
  endfacet
  facet normal 0 0 1
    outer loop
      vertex -33.7896 7.30569 124
      vertex -32.7098 -0.005034 124
      vertex -29.75 -2.15544 124
    endloop
  endfacet
  facet normal 0 0 1
    outer loop
      vertex -34.6941 10.0892 124
      vertex -32.7098 -0.005034 124
      vertex -33.7896 7.30569 124
    endloop
  endfacet
  facet normal 0 0 1
    outer loop
      vertex -34.6941 10.0892 124
      vertex -36.5 11.5 124
      vertex -32.7098 -0.005034 124
    endloop
  endfacet
  facet normal 0 0 1
    outer loop
      vertex -34.8423 11.5 124
      vertex -36.5 11.5 124
      vertex -34.6941 10.0892 124
    endloop
  endfacet
  facet normal 0 0 1
    outer loop
      vertex -34.8423 14.5 124
      vertex -34.6941 15.9108 124
      vertex -38.1176 16.6385 124
    endloop
  endfacet
  facet normal 0 0 1
    outer loop
      vertex -11.6322 2.59597 124
      vertex -14 0.875644 124
      vertex -9.29021 -0.005034 124
    endloop
  endfacet
  facet normal 0 0 1
    outer loop
      vertex -7.15766 11.5 124
      vertex -7.30593 10.0892 124
      vertex -3.88242 9.36154 124
    endloop
  endfacet
  facet normal 0 0 1
    outer loop
      vertex -34.6941 15.9108 124
      vertex -33.7896 18.6943 124
      vertex -38.1176 16.6385 124
    endloop
  endfacet
  facet normal 0 -1 0
    outer loop
      vertex -22.8292 -4.40413 124
      vertex -22.8292 -4.40413 32.5
      vertex -19.1708 -4.40413 32.5
    endloop
  endfacet
  facet normal 0 -1 0
    outer loop
      vertex -19.1708 -4.40413 124
      vertex -22.8292 -4.40413 124
      vertex -19.1708 -4.40413 32.5
    endloop
  endfacet
  facet normal 0 0 -1
    outer loop
      vertex -12.25 -2.15544 32.5
      vertex -19.5366 -0.923307 32.5
      vertex -9.29021 -0.005034 32.5
    endloop
  endfacet
  facet normal 0 0 -1
    outer loop
      vertex -9.29021 -0.005034 32.5
      vertex -16.6738 -0.314791 32.5
      vertex -6.8422 2.71376 32.5
    endloop
  endfacet
  facet normal 0 0 -1
    outer loop
      vertex -6.8422 2.71376 32.5
      vertex -14 0.875644 32.5
      vertex -5.01295 5.88211 32.5
    endloop
  endfacet
  facet normal 0 0 -1
    outer loop
      vertex -5.01295 5.88211 32.5
      vertex -11.6322 2.59597 32.5
      vertex -3.88242 9.36154 32.5
    endloop
  endfacet
  facet normal 0 0 -1
    outer loop
      vertex -3.88242 9.36154 32.5
      vertex -9.67376 4.77101 32.5
      vertex -3.5 13 32.5
    endloop
  endfacet
  facet normal 0 0 -1
    outer loop
      vertex -9.67376 4.77101 32.5
      vertex -8.21036 7.30569 32.5
      vertex -5.5 11.5 32.5
    endloop
  endfacet
  facet normal 0 0 -1
    outer loop
      vertex -5.5 11.5 32.5
      vertex -7.30593 10.0892 32.5
      vertex -7.15766 11.5 32.5
    endloop
  endfacet
  facet normal 0 0 -1
    outer loop
      vertex -8.21036 7.30569 32.5
      vertex -7.30593 10.0892 32.5
      vertex -5.5 11.5 32.5
    endloop
  endfacet
  facet normal 0 0 -1
    outer loop
      vertex -3.88242 16.6385 32.5
      vertex -5.5 11.5 32.5
      vertex -5.01295 20.1179 32.5
    endloop
  endfacet
  facet normal 0 0 -1
    outer loop
      vertex -8.21036 18.6943 32.5
      vertex -5.5 14.5 32.5
      vertex -7.30593 15.9108 32.5
    endloop
  endfacet
  facet normal 0 0 -1
    outer loop
      vertex -5.5 14.5 32.5
      vertex -7.15766 14.5 32.5
      vertex -7.30593 15.9108 32.5
    endloop
  endfacet
  facet normal 0 0 -1
    outer loop
      vertex -9.29021 26.005 32.5
      vertex -5.5 14.5 32.5
      vertex -12.25 28.1554 32.5
    endloop
  endfacet
  facet normal 0 0 -1
    outer loop
      vertex -5.5 14.5 32.5
      vertex -8.21036 18.6943 32.5
      vertex -9.67376 21.229 32.5
    endloop
  endfacet
  facet normal 0 0 -1
    outer loop
      vertex -12.25 28.1554 32.5
      vertex -9.67376 21.229 32.5
      vertex -15.5922 29.6435 32.5
    endloop
  endfacet
  facet normal 0 0 -1
    outer loop
      vertex -15.5922 29.6435 32.5
      vertex -11.6322 23.404 32.5
      vertex -19.1708 30.4041 32.5
    endloop
  endfacet
  facet normal 0 0 -1
    outer loop
      vertex -22.8292 30.4041 32.5
      vertex -14 25.1244 32.5
      vertex -23.5 30.2616 32.5
    endloop
  endfacet
  facet normal 0 0 -1
    outer loop
      vertex -14 25.1244 32.5
      vertex -16.6738 26.3148 32.5
      vertex -23.5 30.2616 32.5
    endloop
  endfacet
  facet normal 0 0 -1
    outer loop
      vertex -16.6738 26.3148 32.5
      vertex -19.5366 26.9233 32.5
      vertex -23.5 30.2616 32.5
    endloop
  endfacet
  facet normal 0 0 -1
    outer loop
      vertex -23.5 30.2616 32.5
      vertex -22.4634 26.9233 32.5
      vertex -23.5 26.703 32.5
    endloop
  endfacet
  facet normal 0 0 -1
    outer loop
      vertex -19.5366 26.9233 32.5
      vertex -22.4634 26.9233 32.5
      vertex -23.5 30.2616 32.5
    endloop
  endfacet
  facet normal 0 0 -1
    outer loop
      vertex -19.1708 30.4041 32.5
      vertex -14 25.1244 32.5
      vertex -22.8292 30.4041 32.5
    endloop
  endfacet
  facet normal 0 0 -1
    outer loop
      vertex -11.6322 23.404 32.5
      vertex -14 25.1244 32.5
      vertex -19.1708 30.4041 32.5
    endloop
  endfacet
  facet normal 0 0 -1
    outer loop
      vertex -9.67376 21.229 32.5
      vertex -11.6322 23.404 32.5
      vertex -15.5922 29.6435 32.5
    endloop
  endfacet
  facet normal 0 0 -1
    outer loop
      vertex -5.5 14.5 32.5
      vertex -9.67376 21.229 32.5
      vertex -12.25 28.1554 32.5
    endloop
  endfacet
  facet normal 0 0 -1
    outer loop
      vertex -6.8422 23.2862 32.5
      vertex -5.5 14.5 32.5
      vertex -9.29021 26.005 32.5
    endloop
  endfacet
  facet normal 0 0 -1
    outer loop
      vertex -5.01295 20.1179 32.5
      vertex -5.5 14.5 32.5
      vertex -6.8422 23.2862 32.5
    endloop
  endfacet
  facet normal 0 0 -1
    outer loop
      vertex -5.5 11.5 32.5
      vertex -5.5 14.5 32.5
      vertex -5.01295 20.1179 32.5
    endloop
  endfacet
  facet normal 0 0 -1
    outer loop
      vertex -3.5 13 32.5
      vertex -5.5 11.5 32.5
      vertex -3.88242 16.6385 32.5
    endloop
  endfacet
  facet normal 0 0 -1
    outer loop
      vertex -9.67376 4.77101 32.5
      vertex -5.5 11.5 32.5
      vertex -3.5 13 32.5
    endloop
  endfacet
  facet normal 0 0 -1
    outer loop
      vertex -11.6322 2.59597 32.5
      vertex -9.67376 4.77101 32.5
      vertex -3.88242 9.36154 32.5
    endloop
  endfacet
  facet normal 0 0 -1
    outer loop
      vertex -14 0.875644 32.5
      vertex -11.6322 2.59597 32.5
      vertex -5.01295 5.88211 32.5
    endloop
  endfacet
  facet normal 0 0 -1
    outer loop
      vertex -16.6738 -0.314791 32.5
      vertex -14 0.875644 32.5
      vertex -6.8422 2.71376 32.5
    endloop
  endfacet
  facet normal 0 0 -1
    outer loop
      vertex -19.5366 -0.923307 32.5
      vertex -16.6738 -0.314791 32.5
      vertex -9.29021 -0.005034 32.5
    endloop
  endfacet
  facet normal 0 0 -1
    outer loop
      vertex -22.4634 -0.923307 32.5
      vertex -19.5366 -0.923307 32.5
      vertex -12.25 -2.15544 32.5
    endloop
  endfacet
  facet normal 0 0 -1
    outer loop
      vertex -22.4634 -0.923307 32.5
      vertex -12.25 -2.15544 32.5
      vertex -15.5922 -3.64349 32.5
    endloop
  endfacet
  facet normal 0 0 -1
    outer loop
      vertex -22.4634 -0.923307 32.5
      vertex -15.5922 -3.64349 32.5
      vertex -23.5 -0.70297 32.5
    endloop
  endfacet
  facet normal 0 0 -1
    outer loop
      vertex -15.5922 -3.64349 32.5
      vertex -19.1708 -4.40413 32.5
      vertex -23.5 -0.70297 32.5
    endloop
  endfacet
  facet normal 0 0 -1
    outer loop
      vertex -19.1708 -4.40413 32.5
      vertex -22.8292 -4.40413 32.5
      vertex -23.5 -0.70297 32.5
    endloop
  endfacet
  facet normal 0 0 -1
    outer loop
      vertex -22.8292 -4.40413 32.5
      vertex -23.5 -4.26156 32.5
      vertex -23.5 -0.70297 32.5
    endloop
  endfacet
  facet normal 0.207912 0.978148 0
    outer loop
      vertex -22.4634 -0.923307 124
      vertex -22.4634 -0.923307 32.5
      vertex -25.3262 -0.314791 124
    endloop
  endfacet
  facet normal 0.207912 0.978148 0
    outer loop
      vertex -25.3262 -0.314791 124
      vertex -22.4634 -0.923307 32.5
      vertex -23.5 -0.70297 32.5
    endloop
  endfacet
  facet normal 0.207912 0.978148 0
    outer loop
      vertex -25.3262 -0.314791 124
      vertex -23.5 -0.70297 32.5
      vertex -23.5 -0.70297 30
    endloop
  endfacet
  facet normal 0.207912 0.978148 0
    outer loop
      vertex -25.3262 -0.314791 124
      vertex -23.5 -0.70297 30
      vertex -25.3262 -0.314791 30
    endloop
  endfacet
  facet normal 0 0 1
    outer loop
      vertex -34.6941 10.0892 30
      vertex -33.7896 7.30569 30
      vertex -34.8423 11.5 30
    endloop
  endfacet
  facet normal 0 0 1
    outer loop
      vertex -36.5 14.5 30
      vertex -36.5 11.5 30
      vertex -34.8423 11.5 30
    endloop
  endfacet
  facet normal 0 0 1
    outer loop
      vertex -28.2444 6.05886 30
      vertex -28.5 8 30
      vertex -36.5 14.5 30
    endloop
  endfacet
  facet normal 0 0 1
    outer loop
      vertex -28 0.875644 30
      vertex -36.5 14.5 30
      vertex -34.8423 11.5 30
    endloop
  endfacet
  facet normal 0 0 1
    outer loop
      vertex -33.7896 7.30569 30
      vertex -32.3262 4.77101 30
      vertex -34.8423 11.5 30
    endloop
  endfacet
  facet normal 0 0 1
    outer loop
      vertex -32.3262 4.77101 30
      vertex -30.3678 2.59597 30
      vertex -34.8423 11.5 30
    endloop
  endfacet
  facet normal 0 0 1
    outer loop
      vertex -30.3678 2.59597 30
      vertex -28 0.875644 30
      vertex -34.8423 11.5 30
    endloop
  endfacet
  facet normal 0 0 1
    outer loop
      vertex -28 0.875644 30
      vertex -25.3262 -0.314791 30
      vertex -36.5 14.5 30
    endloop
  endfacet
  facet normal 0 0 1
    outer loop
      vertex -25.3262 -0.314791 30
      vertex -23.5 -0.70297 30
      vertex -36.5 14.5 30
    endloop
  endfacet
  facet normal 0 0 1
    outer loop
      vertex -33.7896 18.6943 30
      vertex -28 25.1244 30
      vertex -30.3678 23.404 30
    endloop
  endfacet
  facet normal 0 0 1
    outer loop
      vertex -33.7896 18.6943 30
      vertex -25.3262 26.3148 30
      vertex -28 25.1244 30
    endloop
  endfacet
  facet normal 0 0 1
    outer loop
      vertex -23.5 -0.70297 30
      vertex -23.5 0.987042 30
      vertex -24.75 1.50481 30
    endloop
  endfacet
  facet normal 0 0 1
    outer loop
      vertex -23.5 -0.70297 30
      vertex -26.3033 2.6967 30
      vertex -36.5 14.5 30
    endloop
  endfacet
  facet normal 0 0 1
    outer loop
      vertex -23.5 -0.70297 30
      vertex -24.75 1.50481 30
      vertex -26.3033 2.6967 30
    endloop
  endfacet
  facet normal 0 0 1
    outer loop
      vertex -26.3033 2.6967 30
      vertex -27.4952 4.25 30
      vertex -36.5 14.5 30
    endloop
  endfacet
  facet normal 0 0 1
    outer loop
      vertex -28.5 8 30
      vertex -28.2444 9.94114 30
      vertex -36.5 14.5 30
    endloop
  endfacet
  facet normal 0 0 1
    outer loop
      vertex -28.2444 9.94114 30
      vertex -27.4952 11.75 30
      vertex -36.5 14.5 30
    endloop
  endfacet
  facet normal 0 0 1
    outer loop
      vertex -27.4952 11.75 30
      vertex -26.3033 13.3033 30
      vertex -36.5 14.5 30
    endloop
  endfacet
  facet normal 0 0 1
    outer loop
      vertex -26.3033 13.3033 30
      vertex -24.75 14.4952 30
      vertex -36.5 14.5 30
    endloop
  endfacet
  facet normal 0 0 1
    outer loop
      vertex -34.6941 15.9108 30
      vertex -34.8423 14.5 30
      vertex -23.5 15.013 30
    endloop
  endfacet
  facet normal 0 0 1
    outer loop
      vertex -30.3678 23.404 30
      vertex -32.3262 21.229 30
      vertex -33.7896 18.6943 30
    endloop
  endfacet
  facet normal 0 0 1
    outer loop
      vertex -23.5 15.013 30
      vertex -23.5 26.703 30
      vertex -34.6941 15.9108 30
    endloop
  endfacet
  facet normal 0 0 1
    outer loop
      vertex -24.75 14.4952 30
      vertex -34.8423 14.5 30
      vertex -36.5 14.5 30
    endloop
  endfacet
  facet normal 0 0 1
    outer loop
      vertex -24.75 14.4952 30
      vertex -23.5 15.013 30
      vertex -34.8423 14.5 30
    endloop
  endfacet
  facet normal 0 0 1
    outer loop
      vertex -27.4952 4.25 30
      vertex -28.2444 6.05886 30
      vertex -36.5 14.5 30
    endloop
  endfacet
  facet normal 0 0 1
    outer loop
      vertex -33.7896 18.6943 30
      vertex -23.5 26.703 30
      vertex -25.3262 26.3148 30
    endloop
  endfacet
  facet normal 0 0 1
    outer loop
      vertex -33.7896 18.6943 30
      vertex -34.6941 15.9108 30
      vertex -23.5 26.703 30
    endloop
  endfacet
  facet normal 0.207912 -0.978148 0
    outer loop
      vertex -22.4634 26.9233 124
      vertex -23.5 26.703 32.5
      vertex -22.4634 26.9233 32.5
    endloop
  endfacet
  facet normal 0.207912 -0.978148 0
    outer loop
      vertex -25.3262 26.3148 124
      vertex -23.5 26.703 32.5
      vertex -22.4634 26.9233 124
    endloop
  endfacet
  facet normal 0.207912 -0.978148 0
    outer loop
      vertex -23.5 26.703 30
      vertex -23.5 26.703 32.5
      vertex -25.3262 26.3148 124
    endloop
  endfacet
  facet normal 0.207912 -0.978148 0
    outer loop
      vertex -25.3262 26.3148 30
      vertex -23.5 26.703 30
      vertex -25.3262 26.3148 124
    endloop
  endfacet
  facet normal 0 1 0
    outer loop
      vertex -22.8292 30.4041 32.5
      vertex -22.8292 30.4041 124
      vertex -19.1708 30.4041 32.5
    endloop
  endfacet
  facet normal 0 1 0
    outer loop
      vertex -19.1708 30.4041 32.5
      vertex -22.8292 30.4041 124
      vertex -19.1708 30.4041 124
    endloop
  endfacet
  facet normal 0.207912 0.978148 0
    outer loop
      vertex -19.1708 30.4041 32.5
      vertex -19.1708 30.4041 124
      vertex -15.5922 29.6435 32.5
    endloop
  endfacet
  facet normal 0.207912 0.978148 0
    outer loop
      vertex -15.5922 29.6435 32.5
      vertex -19.1708 30.4041 124
      vertex -15.5922 29.6435 124
    endloop
  endfacet
  facet normal 0.406736 0.913546 0
    outer loop
      vertex -15.5922 29.6435 32.5
      vertex -15.5922 29.6435 124
      vertex -12.25 28.1554 32.5
    endloop
  endfacet
  facet normal 0.406736 0.913546 0
    outer loop
      vertex -12.25 28.1554 32.5
      vertex -15.5922 29.6435 124
      vertex -12.25 28.1554 124
    endloop
  endfacet
  facet normal 0.587785 0.809017 0
    outer loop
      vertex -12.25 28.1554 32.5
      vertex -12.25 28.1554 124
      vertex -9.29021 26.005 32.5
    endloop
  endfacet
  facet normal 0.587785 0.809017 0
    outer loop
      vertex -9.29021 26.005 32.5
      vertex -12.25 28.1554 124
      vertex -9.29021 26.005 124
    endloop
  endfacet
  facet normal 0.743145 0.669131 0
    outer loop
      vertex -6.8422 23.2862 32.5
      vertex -9.29021 26.005 32.5
      vertex -9.29021 26.005 124
    endloop
  endfacet
  facet normal 0.743145 0.669131 0
    outer loop
      vertex -6.8422 23.2862 124
      vertex -6.8422 23.2862 32.5
      vertex -9.29021 26.005 124
    endloop
  endfacet
  facet normal 0.866025 0.5 0
    outer loop
      vertex -5.01295 20.1179 32.5
      vertex -6.8422 23.2862 32.5
      vertex -6.8422 23.2862 124
    endloop
  endfacet
  facet normal 0.866025 0.5 0
    outer loop
      vertex -5.01295 20.1179 124
      vertex -5.01295 20.1179 32.5
      vertex -6.8422 23.2862 124
    endloop
  endfacet
  facet normal 0.951057 0.309017 0
    outer loop
      vertex -3.88242 16.6385 32.5
      vertex -5.01295 20.1179 32.5
      vertex -5.01295 20.1179 124
    endloop
  endfacet
  facet normal 0.951057 0.309017 0
    outer loop
      vertex -3.88242 16.6385 124
      vertex -3.88242 16.6385 32.5
      vertex -5.01295 20.1179 124
    endloop
  endfacet
  facet normal 0.994522 0.104528 0
    outer loop
      vertex -3.5 13 32.5
      vertex -3.88242 16.6385 32.5
      vertex -3.88242 16.6385 124
    endloop
  endfacet
  facet normal 0.994522 0.104528 0
    outer loop
      vertex -3.5 13 124
      vertex -3.5 13 32.5
      vertex -3.88242 16.6385 124
    endloop
  endfacet
  facet normal 0.994522 -0.104528 0
    outer loop
      vertex -3.88242 9.36154 124
      vertex -3.88242 9.36154 32.5
      vertex -3.5 13 32.5
    endloop
  endfacet
  facet normal 0.994522 -0.104528 0
    outer loop
      vertex -3.5 13 124
      vertex -3.88242 9.36154 124
      vertex -3.5 13 32.5
    endloop
  endfacet
  facet normal 0.951057 -0.309017 0
    outer loop
      vertex -5.01295 5.88211 124
      vertex -5.01295 5.88211 32.5
      vertex -3.88242 9.36154 32.5
    endloop
  endfacet
  facet normal 0.951057 -0.309017 0
    outer loop
      vertex -3.88242 9.36154 124
      vertex -5.01295 5.88211 124
      vertex -3.88242 9.36154 32.5
    endloop
  endfacet
  facet normal 0.866025 -0.5 0
    outer loop
      vertex -6.8422 2.71376 124
      vertex -6.8422 2.71376 32.5
      vertex -5.01295 5.88211 32.5
    endloop
  endfacet
  facet normal 0.866025 -0.5 0
    outer loop
      vertex -5.01295 5.88211 124
      vertex -6.8422 2.71376 124
      vertex -5.01295 5.88211 32.5
    endloop
  endfacet
  facet normal 0.743145 -0.669131 0
    outer loop
      vertex -9.29021 -0.005034 124
      vertex -9.29021 -0.005034 32.5
      vertex -6.8422 2.71376 32.5
    endloop
  endfacet
  facet normal 0.743145 -0.669131 0
    outer loop
      vertex -6.8422 2.71376 124
      vertex -9.29021 -0.005034 124
      vertex -6.8422 2.71376 32.5
    endloop
  endfacet
  facet normal 0.587785 -0.809017 0
    outer loop
      vertex -12.25 -2.15544 124
      vertex -12.25 -2.15544 32.5
      vertex -9.29021 -0.005034 32.5
    endloop
  endfacet
  facet normal 0.587785 -0.809017 0
    outer loop
      vertex -9.29021 -0.005034 124
      vertex -12.25 -2.15544 124
      vertex -9.29021 -0.005034 32.5
    endloop
  endfacet
  facet normal 0.406736 -0.913546 0
    outer loop
      vertex -15.5922 -3.64349 124
      vertex -15.5922 -3.64349 32.5
      vertex -12.25 -2.15544 32.5
    endloop
  endfacet
  facet normal 0.406736 -0.913546 0
    outer loop
      vertex -12.25 -2.15544 124
      vertex -15.5922 -3.64349 124
      vertex -12.25 -2.15544 32.5
    endloop
  endfacet
  facet normal 0.207912 -0.978148 0
    outer loop
      vertex -19.1708 -4.40413 124
      vertex -19.1708 -4.40413 32.5
      vertex -15.5922 -3.64349 32.5
    endloop
  endfacet
  facet normal 0.207912 -0.978148 0
    outer loop
      vertex -15.5922 -3.64349 124
      vertex -19.1708 -4.40413 124
      vertex -15.5922 -3.64349 32.5
    endloop
  endfacet
  facet normal 1 0 0
    outer loop
      vertex -36.5 14.5 30
      vertex -36.5 14.5 124
      vertex -36.5 11.5 124
    endloop
  endfacet
  facet normal 1 0 0
    outer loop
      vertex -36.5 11.5 30
      vertex -36.5 14.5 30
      vertex -36.5 11.5 124
    endloop
  endfacet
  facet normal 0 1 0
    outer loop
      vertex -34.8423 11.5 124
      vertex -34.8423 11.5 30
      vertex -36.5 11.5 124
    endloop
  endfacet
  facet normal 0 1 0
    outer loop
      vertex -36.5 11.5 124
      vertex -34.8423 11.5 30
      vertex -36.5 11.5 30
    endloop
  endfacet
  facet normal 0.994522 0.104529 0
    outer loop
      vertex -34.8423 11.5 124
      vertex -34.6941 10.0892 124
      vertex -34.6941 10.0892 30
    endloop
  endfacet
  facet normal 0.994522 0.104529 0
    outer loop
      vertex -34.8423 11.5 30
      vertex -34.8423 11.5 124
      vertex -34.6941 10.0892 30
    endloop
  endfacet
  facet normal 0.951057 0.309017 0
    outer loop
      vertex -34.6941 10.0892 124
      vertex -33.7896 7.30569 124
      vertex -33.7896 7.30569 30
    endloop
  endfacet
  facet normal 0.951057 0.309017 0
    outer loop
      vertex -34.6941 10.0892 30
      vertex -34.6941 10.0892 124
      vertex -33.7896 7.30569 30
    endloop
  endfacet
  facet normal 0.866026 0.5 0
    outer loop
      vertex -33.7896 7.30569 124
      vertex -32.3262 4.77101 124
      vertex -32.3262 4.77101 30
    endloop
  endfacet
  facet normal 0.866026 0.5 0
    outer loop
      vertex -33.7896 7.30569 30
      vertex -33.7896 7.30569 124
      vertex -32.3262 4.77101 30
    endloop
  endfacet
  facet normal 0.743145 0.669131 0
    outer loop
      vertex -32.3262 4.77101 124
      vertex -30.3678 2.59597 124
      vertex -30.3678 2.59597 30
    endloop
  endfacet
  facet normal 0.743145 0.669131 0
    outer loop
      vertex -32.3262 4.77101 30
      vertex -32.3262 4.77101 124
      vertex -30.3678 2.59597 30
    endloop
  endfacet
  facet normal 0.587785 0.809017 0
    outer loop
      vertex -28 0.875644 124
      vertex -28 0.875644 30
      vertex -30.3678 2.59597 124
    endloop
  endfacet
  facet normal 0.587785 0.809017 0
    outer loop
      vertex -30.3678 2.59597 124
      vertex -28 0.875644 30
      vertex -30.3678 2.59597 30
    endloop
  endfacet
  facet normal 0.406736 0.913546 0
    outer loop
      vertex -25.3262 -0.314791 124
      vertex -25.3262 -0.314791 30
      vertex -28 0.875644 124
    endloop
  endfacet
  facet normal 0.406736 0.913546 0
    outer loop
      vertex -28 0.875644 124
      vertex -25.3262 -0.314791 30
      vertex -28 0.875644 30
    endloop
  endfacet
  facet normal 0 1 0
    outer loop
      vertex -19.5366 -0.923307 124
      vertex -19.5366 -0.923307 32.5
      vertex -22.4634 -0.923307 124
    endloop
  endfacet
  facet normal 0 1 0
    outer loop
      vertex -22.4634 -0.923307 124
      vertex -19.5366 -0.923307 32.5
      vertex -22.4634 -0.923307 32.5
    endloop
  endfacet
  facet normal -0.207912 0.978148 0
    outer loop
      vertex -16.6738 -0.314791 124
      vertex -16.6738 -0.314791 32.5
      vertex -19.5366 -0.923307 124
    endloop
  endfacet
  facet normal -0.207912 0.978148 0
    outer loop
      vertex -19.5366 -0.923307 124
      vertex -16.6738 -0.314791 32.5
      vertex -19.5366 -0.923307 32.5
    endloop
  endfacet
  facet normal -0.406736 0.913546 0
    outer loop
      vertex -14 0.875644 124
      vertex -14 0.875644 32.5
      vertex -16.6738 -0.314791 124
    endloop
  endfacet
  facet normal -0.406736 0.913546 0
    outer loop
      vertex -16.6738 -0.314791 124
      vertex -14 0.875644 32.5
      vertex -16.6738 -0.314791 32.5
    endloop
  endfacet
  facet normal -0.587785 0.809017 0
    outer loop
      vertex -11.6322 2.59597 124
      vertex -11.6322 2.59597 32.5
      vertex -14 0.875644 124
    endloop
  endfacet
  facet normal -0.587785 0.809017 0
    outer loop
      vertex -14 0.875644 124
      vertex -11.6322 2.59597 32.5
      vertex -14 0.875644 32.5
    endloop
  endfacet
  facet normal -0.743145 0.669131 0
    outer loop
      vertex -9.67376 4.77101 124
      vertex -9.67376 4.77101 32.5
      vertex -11.6322 2.59597 124
    endloop
  endfacet
  facet normal -0.743145 0.669131 0
    outer loop
      vertex -11.6322 2.59597 124
      vertex -9.67376 4.77101 32.5
      vertex -11.6322 2.59597 32.5
    endloop
  endfacet
  facet normal -0.866026 0.5 0
    outer loop
      vertex -8.21036 7.30569 124
      vertex -8.21036 7.30569 32.5
      vertex -9.67376 4.77101 124
    endloop
  endfacet
  facet normal -0.866026 0.5 0
    outer loop
      vertex -9.67376 4.77101 124
      vertex -8.21036 7.30569 32.5
      vertex -9.67376 4.77101 32.5
    endloop
  endfacet
  facet normal -0.951057 0.309017 0
    outer loop
      vertex -7.30593 10.0892 124
      vertex -7.30593 10.0892 32.5
      vertex -8.21036 7.30569 124
    endloop
  endfacet
  facet normal -0.951057 0.309017 0
    outer loop
      vertex -8.21036 7.30569 124
      vertex -7.30593 10.0892 32.5
      vertex -8.21036 7.30569 32.5
    endloop
  endfacet
  facet normal -0.994522 0.104529 0
    outer loop
      vertex -7.15766 11.5 124
      vertex -7.15766 11.5 32.5
      vertex -7.30593 10.0892 124
    endloop
  endfacet
  facet normal -0.994522 0.104529 0
    outer loop
      vertex -7.30593 10.0892 124
      vertex -7.15766 11.5 32.5
      vertex -7.30593 10.0892 32.5
    endloop
  endfacet
  facet normal 0 1 0
    outer loop
      vertex -5.5 11.5 124
      vertex -5.5 11.5 32.5
      vertex -7.15766 11.5 124
    endloop
  endfacet
  facet normal 0 1 0
    outer loop
      vertex -7.15766 11.5 124
      vertex -5.5 11.5 32.5
      vertex -7.15766 11.5 32.5
    endloop
  endfacet
  facet normal -1 0 0
    outer loop
      vertex -5.5 14.5 124
      vertex -5.5 14.5 32.5
      vertex -5.5 11.5 124
    endloop
  endfacet
  facet normal -1 0 0
    outer loop
      vertex -5.5 11.5 124
      vertex -5.5 14.5 32.5
      vertex -5.5 11.5 32.5
    endloop
  endfacet
  facet normal 0 -1 0
    outer loop
      vertex -5.5 14.5 32.5
      vertex -5.5 14.5 124
      vertex -7.15766 14.5 124
    endloop
  endfacet
  facet normal 0 -1 0
    outer loop
      vertex -7.15766 14.5 32.5
      vertex -5.5 14.5 32.5
      vertex -7.15766 14.5 124
    endloop
  endfacet
  facet normal -0.994522 -0.104529 0
    outer loop
      vertex -7.15766 14.5 124
      vertex -7.30593 15.9108 124
      vertex -7.15766 14.5 32.5
    endloop
  endfacet
  facet normal -0.994522 -0.104529 0
    outer loop
      vertex -7.15766 14.5 32.5
      vertex -7.30593 15.9108 124
      vertex -7.30593 15.9108 32.5
    endloop
  endfacet
  facet normal -0.951057 -0.309017 0
    outer loop
      vertex -7.30593 15.9108 124
      vertex -8.21036 18.6943 124
      vertex -7.30593 15.9108 32.5
    endloop
  endfacet
  facet normal -0.951057 -0.309017 0
    outer loop
      vertex -7.30593 15.9108 32.5
      vertex -8.21036 18.6943 124
      vertex -8.21036 18.6943 32.5
    endloop
  endfacet
  facet normal -0.866026 -0.5 0
    outer loop
      vertex -8.21036 18.6943 124
      vertex -9.67376 21.229 124
      vertex -8.21036 18.6943 32.5
    endloop
  endfacet
  facet normal -0.866026 -0.5 0
    outer loop
      vertex -8.21036 18.6943 32.5
      vertex -9.67376 21.229 124
      vertex -9.67376 21.229 32.5
    endloop
  endfacet
  facet normal -0.743145 -0.669131 0
    outer loop
      vertex -9.67376 21.229 124
      vertex -11.6322 23.404 124
      vertex -9.67376 21.229 32.5
    endloop
  endfacet
  facet normal -0.743145 -0.669131 0
    outer loop
      vertex -9.67376 21.229 32.5
      vertex -11.6322 23.404 124
      vertex -11.6322 23.404 32.5
    endloop
  endfacet
  facet normal -0.587785 -0.809017 0
    outer loop
      vertex -11.6322 23.404 32.5
      vertex -11.6322 23.404 124
      vertex -14 25.1244 124
    endloop
  endfacet
  facet normal -0.587785 -0.809017 0
    outer loop
      vertex -14 25.1244 32.5
      vertex -11.6322 23.404 32.5
      vertex -14 25.1244 124
    endloop
  endfacet
  facet normal -0.406736 -0.913546 0
    outer loop
      vertex -14 25.1244 32.5
      vertex -14 25.1244 124
      vertex -16.6738 26.3148 124
    endloop
  endfacet
  facet normal -0.406736 -0.913546 0
    outer loop
      vertex -16.6738 26.3148 32.5
      vertex -14 25.1244 32.5
      vertex -16.6738 26.3148 124
    endloop
  endfacet
  facet normal -0.207912 -0.978148 0
    outer loop
      vertex -16.6738 26.3148 32.5
      vertex -16.6738 26.3148 124
      vertex -19.5366 26.9233 124
    endloop
  endfacet
  facet normal -0.207912 -0.978148 0
    outer loop
      vertex -19.5366 26.9233 32.5
      vertex -16.6738 26.3148 32.5
      vertex -19.5366 26.9233 124
    endloop
  endfacet
  facet normal 0 -1 0
    outer loop
      vertex -19.5366 26.9233 32.5
      vertex -19.5366 26.9233 124
      vertex -22.4634 26.9233 124
    endloop
  endfacet
  facet normal 0 -1 0
    outer loop
      vertex -22.4634 26.9233 32.5
      vertex -19.5366 26.9233 32.5
      vertex -22.4634 26.9233 124
    endloop
  endfacet
  facet normal 0.406736 -0.913546 0
    outer loop
      vertex -25.3262 26.3148 30
      vertex -25.3262 26.3148 124
      vertex -28 25.1244 124
    endloop
  endfacet
  facet normal 0.406736 -0.913546 0
    outer loop
      vertex -28 25.1244 30
      vertex -25.3262 26.3148 30
      vertex -28 25.1244 124
    endloop
  endfacet
  facet normal 0.587785 -0.809017 0
    outer loop
      vertex -28 25.1244 30
      vertex -28 25.1244 124
      vertex -30.3678 23.404 124
    endloop
  endfacet
  facet normal 0.587785 -0.809017 0
    outer loop
      vertex -30.3678 23.404 30
      vertex -28 25.1244 30
      vertex -30.3678 23.404 124
    endloop
  endfacet
  facet normal 0.743145 -0.669131 0
    outer loop
      vertex -30.3678 23.404 30
      vertex -30.3678 23.404 124
      vertex -32.3262 21.229 124
    endloop
  endfacet
  facet normal 0.743145 -0.669131 0
    outer loop
      vertex -32.3262 21.229 30
      vertex -30.3678 23.404 30
      vertex -32.3262 21.229 124
    endloop
  endfacet
  facet normal 0.866026 -0.5 0
    outer loop
      vertex -32.3262 21.229 30
      vertex -32.3262 21.229 124
      vertex -33.7896 18.6943 124
    endloop
  endfacet
  facet normal 0.866026 -0.5 0
    outer loop
      vertex -33.7896 18.6943 30
      vertex -32.3262 21.229 30
      vertex -33.7896 18.6943 124
    endloop
  endfacet
  facet normal 0.951057 -0.309017 0
    outer loop
      vertex -33.7896 18.6943 30
      vertex -33.7896 18.6943 124
      vertex -34.6941 15.9108 124
    endloop
  endfacet
  facet normal 0.951057 -0.309017 0
    outer loop
      vertex -34.6941 15.9108 30
      vertex -33.7896 18.6943 30
      vertex -34.6941 15.9108 124
    endloop
  endfacet
  facet normal 0.994522 -0.104529 0
    outer loop
      vertex -34.6941 15.9108 30
      vertex -34.6941 15.9108 124
      vertex -34.8423 14.5 124
    endloop
  endfacet
  facet normal 0.994522 -0.104529 0
    outer loop
      vertex -34.8423 14.5 30
      vertex -34.6941 15.9108 30
      vertex -34.8423 14.5 124
    endloop
  endfacet
  facet normal 0 -1 0
    outer loop
      vertex -34.8423 14.5 30
      vertex -34.8423 14.5 124
      vertex -36.5 14.5 124
    endloop
  endfacet
  facet normal 0 -1 0
    outer loop
      vertex -36.5 14.5 30
      vertex -34.8423 14.5 30
      vertex -36.5 14.5 124
    endloop
  endfacet
endsolid OpenSCAD_Model
