solid OpenSCAD_Model
  facet normal 0 0 -1
    outer loop
      vertex -15 0 0
      vertex -14.6722 3.11867 0
      vertex -14.6722 -3.11867 0
    endloop
  endfacet
  facet normal 0 0 -1
    outer loop
      vertex -14.6722 -3.11867 0
      vertex -14.6722 3.11867 0
      vertex -13.7032 6.10105 0
    endloop
  endfacet
  facet normal 0 0 -1
    outer loop
      vertex -14.6722 -3.11867 0
      vertex -13.7032 6.10105 0
      vertex -12.1353 8.81678 0
    endloop
  endfacet
  facet normal 0 0 -1
    outer loop
      vertex -14.6722 -3.11867 0
      vertex -12.1353 8.81678 0
      vertex -10.037 11.1472 0
    endloop
  endfacet
  facet normal 0 0 -1
    outer loop
      vertex -14.6722 -3.11867 0
      vertex -10.037 11.1472 0
      vertex -7.5 12.9904 0
    endloop
  endfacet
  facet normal 0 0 -1
    outer loop
      vertex -14.6722 -3.11867 0
      vertex -7.5 12.9904 0
      vertex -4.63525 14.2658 0
    endloop
  endfacet
  facet normal 0 0 -1
    outer loop
      vertex -14.6722 -3.11867 0
      vertex -4.63525 14.2658 0
      vertex -1.56793 14.9178 0
    endloop
  endfacet
  facet normal 0 0 -1
    outer loop
      vertex -14.6722 -3.11867 0
      vertex -1.56793 14.9178 0
      vertex 1.56793 14.9178 0
    endloop
  endfacet
  facet normal 0 0 -1
    outer loop
      vertex -14.6722 -3.11867 0
      vertex 1.56793 14.9178 0
      vertex 4.63525 14.2658 0
    endloop
  endfacet
  facet normal 0 0 -1
    outer loop
      vertex -14.6722 -3.11867 0
      vertex 4.63525 14.2658 0
      vertex 7.5 12.9904 0
    endloop
  endfacet
  facet normal 0 0 -1
    outer loop
      vertex -14.6722 -3.11867 0
      vertex 7.5 12.9904 0
      vertex 10.037 11.1472 0
    endloop
  endfacet
  facet normal 0 0 -1
    outer loop
      vertex -14.6722 -3.11867 0
      vertex 10.037 11.1472 0
      vertex 12.1353 8.81678 0
    endloop
  endfacet
  facet normal 0 0 -1
    outer loop
      vertex -14.6722 -3.11867 0
      vertex 12.1353 8.81678 0
      vertex 13.7032 6.10105 0
    endloop
  endfacet
  facet normal 0 0 -1
    outer loop
      vertex -14.6722 -3.11867 0
      vertex 13.7032 6.10105 0
      vertex 14.6722 3.11867 0
    endloop
  endfacet
  facet normal 0 0 -1
    outer loop
      vertex -14.6722 -3.11867 0
      vertex 14.6722 3.11867 0
      vertex 15 0 0
    endloop
  endfacet
  facet normal 0 0 -1
    outer loop
      vertex -14.6722 -3.11867 0
      vertex 15 0 0
      vertex 14.6722 -3.11867 0
    endloop
  endfacet
  facet normal 0 0 -1
    outer loop
      vertex -14.6722 -3.11867 0
      vertex 14.6722 -3.11867 0
      vertex 13.7032 -6.10105 0
    endloop
  endfacet
  facet normal 0 0 -1
    outer loop
      vertex -14.6722 -3.11867 0
      vertex 13.7032 -6.10105 0
      vertex 12.1353 -8.81678 0
    endloop
  endfacet
  facet normal 0 0 -1
    outer loop
      vertex -14.6722 -3.11867 0
      vertex 12.1353 -8.81678 0
      vertex 10.037 -11.1472 0
    endloop
  endfacet
  facet normal 0 0 -1
    outer loop
      vertex -14.6722 -3.11867 0
      vertex 10.037 -11.1472 0
      vertex 7.5 -12.9904 0
    endloop
  endfacet
  facet normal 0 0 -1
    outer loop
      vertex -14.6722 -3.11867 0
      vertex 7.5 -12.9904 0
      vertex 4.63525 -14.2658 0
    endloop
  endfacet
  facet normal 0 0 -1
    outer loop
      vertex -14.6722 -3.11867 0
      vertex 4.63525 -14.2658 0
      vertex 1.56793 -14.9178 0
    endloop
  endfacet
  facet normal 0 0 -1
    outer loop
      vertex -14.6722 -3.11867 0
      vertex 1.56793 -14.9178 0
      vertex -1.56793 -14.9178 0
    endloop
  endfacet
  facet normal 0 0 -1
    outer loop
      vertex -14.6722 -3.11867 0
      vertex -1.56793 -14.9178 0
      vertex -4.63525 -14.2658 0
    endloop
  endfacet
  facet normal 0 0 -1
    outer loop
      vertex -14.6722 -3.11867 0
      vertex -4.63525 -14.2658 0
      vertex -7.5 -12.9904 0
    endloop
  endfacet
  facet normal 0 0 -1
    outer loop
      vertex -14.6722 -3.11867 0
      vertex -7.5 -12.9904 0
      vertex -10.037 -11.1472 0
    endloop
  endfacet
  facet normal 0 0 -1
    outer loop
      vertex -14.6722 -3.11867 0
      vertex -10.037 -11.1472 0
      vertex -12.1353 -8.81678 0
    endloop
  endfacet
  facet normal 0 0 -1
    outer loop
      vertex -14.6722 -3.11867 0
      vertex -12.1353 -8.81678 0
      vertex -13.7032 -6.10105 0
    endloop
  endfacet
  facet normal -0.994522 0.104528 0
    outer loop
      vertex -15 0 0
      vertex -15 0 35
      vertex -14.6722 3.11867 0
    endloop
  endfacet
  facet normal -0.994522 0.104528 0
    outer loop
      vertex -14.6722 3.11867 0
      vertex -15 0 35
      vertex -14.6722 3.11867 35
    endloop
  endfacet
  facet normal -0.994522 -0.104528 0
    outer loop
      vertex -15 0 0
      vertex -14.6722 -3.11867 0
      vertex -15 0 35
    endloop
  endfacet
  facet normal -0.994522 -0.104528 0
    outer loop
      vertex -15 0 35
      vertex -14.6722 -3.11867 0
      vertex -14.6722 -3.11867 35
    endloop
  endfacet
  facet normal -0.951057 -0.309017 0
    outer loop
      vertex -14.6722 -3.11867 0
      vertex -13.7032 -6.10105 0
      vertex -14.6722 -3.11867 35
    endloop
  endfacet
  facet normal -0.951057 -0.309017 0
    outer loop
      vertex -14.6722 -3.11867 35
      vertex -13.7032 -6.10105 0
      vertex -13.7032 -6.10105 35
    endloop
  endfacet
  facet normal -0.866025 -0.5 0
    outer loop
      vertex -13.7032 -6.10105 0
      vertex -12.1353 -8.81678 0
      vertex -13.7032 -6.10105 35
    endloop
  endfacet
  facet normal -0.866025 -0.5 0
    outer loop
      vertex -13.7032 -6.10105 35
      vertex -12.1353 -8.81678 0
      vertex -12.1353 -8.81678 35
    endloop
  endfacet
  facet normal -0.743145 -0.669131 0
    outer loop
      vertex -12.1353 -8.81678 0
      vertex -10.037 -11.1472 0
      vertex -12.1353 -8.81678 35
    endloop
  endfacet
  facet normal -0.743145 -0.669131 0
    outer loop
      vertex -12.1353 -8.81678 35
      vertex -10.037 -11.1472 0
      vertex -10.037 -11.1472 35
    endloop
  endfacet
  facet normal -0.587785 -0.809017 0
    outer loop
      vertex -10.037 -11.1472 35
      vertex -10.037 -11.1472 0
      vertex -7.5 -12.9904 0
    endloop
  endfacet
  facet normal -0.587785 -0.809017 0
    outer loop
      vertex -7.5 -12.9904 35
      vertex -10.037 -11.1472 35
      vertex -7.5 -12.9904 0
    endloop
  endfacet
  facet normal -0.406737 -0.913545 0
    outer loop
      vertex -7.5 -12.9904 35
      vertex -7.5 -12.9904 0
      vertex -4.63525 -14.2658 0
    endloop
  endfacet
  facet normal -0.406737 -0.913545 0
    outer loop
      vertex -4.63525 -14.2658 35
      vertex -7.5 -12.9904 35
      vertex -4.63525 -14.2658 0
    endloop
  endfacet
  facet normal -0.207911 -0.978148 0
    outer loop
      vertex -4.63525 -14.2658 35
      vertex -4.63525 -14.2658 0
      vertex -1.56793 -14.9178 0
    endloop
  endfacet
  facet normal -0.207911 -0.978148 0
    outer loop
      vertex -1.56793 -14.9178 35
      vertex -4.63525 -14.2658 35
      vertex -1.56793 -14.9178 0
    endloop
  endfacet
  facet normal 0 -1 0
    outer loop
      vertex -1.56793 -14.9178 35
      vertex -1.56793 -14.9178 0
      vertex 1.56793 -14.9178 0
    endloop
  endfacet
  facet normal 0 -1 0
    outer loop
      vertex 1.56793 -14.9178 35
      vertex -1.56793 -14.9178 35
      vertex 1.56793 -14.9178 0
    endloop
  endfacet
  facet normal 0.207911 -0.978148 0
    outer loop
      vertex 1.56793 -14.9178 35
      vertex 1.56793 -14.9178 0
      vertex 4.63525 -14.2658 0
    endloop
  endfacet
  facet normal 0.207911 -0.978148 0
    outer loop
      vertex 4.63525 -14.2658 35
      vertex 1.56793 -14.9178 35
      vertex 4.63525 -14.2658 0
    endloop
  endfacet
  facet normal 0.406737 -0.913545 0
    outer loop
      vertex 4.63525 -14.2658 35
      vertex 4.63525 -14.2658 0
      vertex 7.5 -12.9904 0
    endloop
  endfacet
  facet normal 0.406737 -0.913545 0
    outer loop
      vertex 7.5 -12.9904 35
      vertex 4.63525 -14.2658 35
      vertex 7.5 -12.9904 0
    endloop
  endfacet
  facet normal 0.587785 -0.809017 0
    outer loop
      vertex 7.5 -12.9904 35
      vertex 7.5 -12.9904 0
      vertex 10.037 -11.1472 0
    endloop
  endfacet
  facet normal 0.587785 -0.809017 0
    outer loop
      vertex 10.037 -11.1472 35
      vertex 7.5 -12.9904 35
      vertex 10.037 -11.1472 0
    endloop
  endfacet
  facet normal 0.743145 -0.669131 0
    outer loop
      vertex 10.037 -11.1472 35
      vertex 10.037 -11.1472 0
      vertex 12.1353 -8.81678 0
    endloop
  endfacet
  facet normal 0.743145 -0.669131 0
    outer loop
      vertex 12.1353 -8.81678 35
      vertex 10.037 -11.1472 35
      vertex 12.1353 -8.81678 0
    endloop
  endfacet
  facet normal 0.866025 -0.5 0
    outer loop
      vertex 12.1353 -8.81678 35
      vertex 12.1353 -8.81678 0
      vertex 13.7032 -6.10105 0
    endloop
  endfacet
  facet normal 0.866025 -0.5 0
    outer loop
      vertex 13.7032 -6.10105 35
      vertex 12.1353 -8.81678 35
      vertex 13.7032 -6.10105 0
    endloop
  endfacet
  facet normal 0.951057 -0.309017 0
    outer loop
      vertex 13.7032 -6.10105 35
      vertex 13.7032 -6.10105 0
      vertex 14.6722 -3.11867 0
    endloop
  endfacet
  facet normal 0.951057 -0.309017 0
    outer loop
      vertex 14.6722 -3.11867 35
      vertex 13.7032 -6.10105 35
      vertex 14.6722 -3.11867 0
    endloop
  endfacet
  facet normal 0.994522 -0.104528 0
    outer loop
      vertex 14.6722 -3.11867 35
      vertex 14.6722 -3.11867 0
      vertex 15 0 0
    endloop
  endfacet
  facet normal 0.994522 -0.104528 0
    outer loop
      vertex 15 0 35
      vertex 14.6722 -3.11867 35
      vertex 15 0 0
    endloop
  endfacet
  facet normal 0.994522 0.104528 0
    outer loop
      vertex 15 0 0
      vertex 14.6722 3.11867 0
      vertex 14.6722 3.11867 35
    endloop
  endfacet
  facet normal 0.994522 0.104528 0
    outer loop
      vertex 15 0 35
      vertex 15 0 0
      vertex 14.6722 3.11867 35
    endloop
  endfacet
  facet normal 0.951057 0.309017 0
    outer loop
      vertex 14.6722 3.11867 0
      vertex 13.7032 6.10105 0
      vertex 13.7032 6.10105 35
    endloop
  endfacet
  facet normal 0.951057 0.309017 0
    outer loop
      vertex 14.6722 3.11867 35
      vertex 14.6722 3.11867 0
      vertex 13.7032 6.10105 35
    endloop
  endfacet
  facet normal 0.866025 0.5 0
    outer loop
      vertex 13.7032 6.10105 0
      vertex 12.1353 8.81678 0
      vertex 12.1353 8.81678 35
    endloop
  endfacet
  facet normal 0.866025 0.5 0
    outer loop
      vertex 13.7032 6.10105 35
      vertex 13.7032 6.10105 0
      vertex 12.1353 8.81678 35
    endloop
  endfacet
  facet normal 0.743145 0.669131 0
    outer loop
      vertex 12.1353 8.81678 0
      vertex 10.037 11.1472 0
      vertex 10.037 11.1472 35
    endloop
  endfacet
  facet normal 0.743145 0.669131 0
    outer loop
      vertex 12.1353 8.81678 35
      vertex 12.1353 8.81678 0
      vertex 10.037 11.1472 35
    endloop
  endfacet
  facet normal 0.587785 0.809017 0
    outer loop
      vertex 7.5 12.9904 0
      vertex 7.5 12.9904 35
      vertex 10.037 11.1472 0
    endloop
  endfacet
  facet normal 0.587785 0.809017 0
    outer loop
      vertex 10.037 11.1472 0
      vertex 7.5 12.9904 35
      vertex 10.037 11.1472 35
    endloop
  endfacet
  facet normal 0.406737 0.913545 0
    outer loop
      vertex 4.63525 14.2658 0
      vertex 4.63525 14.2658 35
      vertex 7.5 12.9904 0
    endloop
  endfacet
  facet normal 0.406737 0.913545 0
    outer loop
      vertex 7.5 12.9904 0
      vertex 4.63525 14.2658 35
      vertex 7.5 12.9904 35
    endloop
  endfacet
  facet normal 0.207911 0.978148 0
    outer loop
      vertex 1.56793 14.9178 0
      vertex 1.56793 14.9178 35
      vertex 4.63525 14.2658 0
    endloop
  endfacet
  facet normal 0.207911 0.978148 0
    outer loop
      vertex 4.63525 14.2658 0
      vertex 1.56793 14.9178 35
      vertex 4.63525 14.2658 35
    endloop
  endfacet
  facet normal 0 1 0
    outer loop
      vertex -1.56793 14.9178 0
      vertex -1.56793 14.9178 35
      vertex 1.56793 14.9178 0
    endloop
  endfacet
  facet normal 0 1 0
    outer loop
      vertex 1.56793 14.9178 0
      vertex -1.56793 14.9178 35
      vertex 1.56793 14.9178 35
    endloop
  endfacet
  facet normal -0.207911 0.978148 0
    outer loop
      vertex -4.63525 14.2658 0
      vertex -4.63525 14.2658 35
      vertex -1.56793 14.9178 0
    endloop
  endfacet
  facet normal -0.207911 0.978148 0
    outer loop
      vertex -1.56793 14.9178 0
      vertex -4.63525 14.2658 35
      vertex -1.56793 14.9178 35
    endloop
  endfacet
  facet normal -0.406737 0.913545 0
    outer loop
      vertex -7.5 12.9904 0
      vertex -7.5 12.9904 35
      vertex -4.63525 14.2658 0
    endloop
  endfacet
  facet normal -0.406737 0.913545 0
    outer loop
      vertex -4.63525 14.2658 0
      vertex -7.5 12.9904 35
      vertex -4.63525 14.2658 35
    endloop
  endfacet
  facet normal -0.587785 0.809017 0
    outer loop
      vertex -10.037 11.1472 0
      vertex -10.037 11.1472 35
      vertex -7.5 12.9904 0
    endloop
  endfacet
  facet normal -0.587785 0.809017 0
    outer loop
      vertex -7.5 12.9904 0
      vertex -10.037 11.1472 35
      vertex -7.5 12.9904 35
    endloop
  endfacet
  facet normal -0.743145 0.669131 0
    outer loop
      vertex -12.1353 8.81678 0
      vertex -12.1353 8.81678 35
      vertex -10.037 11.1472 0
    endloop
  endfacet
  facet normal -0.743145 0.669131 0
    outer loop
      vertex -10.037 11.1472 0
      vertex -12.1353 8.81678 35
      vertex -10.037 11.1472 35
    endloop
  endfacet
  facet normal -0.866025 0.5 0
    outer loop
      vertex -13.7032 6.10105 0
      vertex -13.7032 6.10105 35
      vertex -12.1353 8.81678 0
    endloop
  endfacet
  facet normal -0.866025 0.5 0
    outer loop
      vertex -12.1353 8.81678 0
      vertex -13.7032 6.10105 35
      vertex -12.1353 8.81678 35
    endloop
  endfacet
  facet normal -0.951057 0.309017 0
    outer loop
      vertex -14.6722 3.11867 0
      vertex -14.6722 3.11867 35
      vertex -13.7032 6.10105 0
    endloop
  endfacet
  facet normal -0.951057 0.309017 0
    outer loop
      vertex -13.7032 6.10105 0
      vertex -14.6722 3.11867 35
      vertex -13.7032 6.10105 35
    endloop
  endfacet
  facet normal 0 0 1
    outer loop
      vertex -14.6722 3.11867 35
      vertex -15 0 35
      vertex -14.6722 -3.11867 35
    endloop
  endfacet
  facet normal 0 0 1
    outer loop
      vertex -12.1353 -8.81678 35
      vertex -14.6722 3.11867 35
      vertex -13.7032 -6.10105 35
    endloop
  endfacet
  facet normal 0 0 1
    outer loop
      vertex -13.7032 -6.10105 35
      vertex -14.6722 3.11867 35
      vertex -14.6722 -3.11867 35
    endloop
  endfacet
  facet normal 0 0 1
    outer loop
      vertex -10.037 -11.1472 35
      vertex -14.6722 3.11867 35
      vertex -12.1353 -8.81678 35
    endloop
  endfacet
  facet normal 0 0 1
    outer loop
      vertex -12.5203 -2.66127 35
      vertex -14.6722 3.11867 35
      vertex -10.037 -11.1472 35
    endloop
  endfacet
  facet normal 0 0 1
    outer loop
      vertex 10.3554 -7.52365 35
      vertex 8.56487 -9.51225 35
      vertex 12.1353 -8.81678 35
    endloop
  endfacet
  facet normal 0 0 1
    outer loop
      vertex -12.5203 2.66127 35
      vertex -11.6934 5.20623 35
      vertex -14.6722 3.11867 35
    endloop
  endfacet
  facet normal 0 0 1
    outer loop
      vertex -1.33796 -12.7299 35
      vertex -3.95542 -12.1735 35
      vertex -1.56793 -14.9178 35
    endloop
  endfacet
  facet normal 0 0 1
    outer loop
      vertex 11.6934 5.20623 35
      vertex 12.5203 2.66127 35
      vertex 14.6722 3.11867 35
    endloop
  endfacet
  facet normal 0 0 1
    outer loop
      vertex 10.3554 7.52365 35
      vertex 11.6934 5.20623 35
      vertex 13.7032 6.10105 35
    endloop
  endfacet
  facet normal 0 0 1
    outer loop
      vertex 8.56487 9.51225 35
      vertex 10.3554 7.52365 35
      vertex 12.1353 8.81678 35
    endloop
  endfacet
  facet normal 0 0 1
    outer loop
      vertex 1.33796 12.7299 35
      vertex 3.95542 12.1735 35
      vertex 4.63525 14.2658 35
    endloop
  endfacet
  facet normal 0 0 1
    outer loop
      vertex -3.95542 12.1735 35
      vertex -1.33796 12.7299 35
      vertex 1.56793 14.9178 35
    endloop
  endfacet
  facet normal 0 0 1
    outer loop
      vertex -7.5 12.9904 35
      vertex -14.6722 3.11867 35
      vertex -4.63525 14.2658 35
    endloop
  endfacet
  facet normal 0 0 1
    outer loop
      vertex -10.037 11.1472 35
      vertex -14.6722 3.11867 35
      vertex -7.5 12.9904 35
    endloop
  endfacet
  facet normal 0 0 1
    outer loop
      vertex -12.1353 8.81678 35
      vertex -14.6722 3.11867 35
      vertex -10.037 11.1472 35
    endloop
  endfacet
  facet normal 0 0 1
    outer loop
      vertex -13.7032 6.10105 35
      vertex -14.6722 3.11867 35
      vertex -12.1353 8.81678 35
    endloop
  endfacet
  facet normal 0 0 1
    outer loop
      vertex -11.6934 -5.20623 35
      vertex -12.5203 -2.66127 35
      vertex -10.037 -11.1472 35
    endloop
  endfacet
  facet normal 0 0 1
    outer loop
      vertex 11.6934 -5.20623 35
      vertex 10.3554 -7.52365 35
      vertex 13.7032 -6.10105 35
    endloop
  endfacet
  facet normal 0 0 1
    outer loop
      vertex 3.95542 12.1735 35
      vertex 6.4 11.0851 35
      vertex 7.5 12.9904 35
    endloop
  endfacet
  facet normal 0 0 1
    outer loop
      vertex -4.63525 14.2658 35
      vertex -14.6722 3.11867 35
      vertex -10.3554 7.52365 35
    endloop
  endfacet
  facet normal 0 0 1
    outer loop
      vertex -4.63525 14.2658 35
      vertex -8.56487 9.51225 35
      vertex -1.56793 14.9178 35
    endloop
  endfacet
  facet normal 0 0 1
    outer loop
      vertex -4.63525 14.2658 35
      vertex -10.3554 7.52365 35
      vertex -8.56487 9.51225 35
    endloop
  endfacet
  facet normal 0 0 1
    outer loop
      vertex -8.56487 9.51225 35
      vertex -6.4 11.0851 35
      vertex -1.56793 14.9178 35
    endloop
  endfacet
  facet normal 0 0 1
    outer loop
      vertex -1.56793 14.9178 35
      vertex -3.95542 12.1735 35
      vertex 1.56793 14.9178 35
    endloop
  endfacet
  facet normal 0 0 1
    outer loop
      vertex -6.4 11.0851 35
      vertex -3.95542 12.1735 35
      vertex -1.56793 14.9178 35
    endloop
  endfacet
  facet normal 0 0 1
    outer loop
      vertex 1.56793 14.9178 35
      vertex -1.33796 12.7299 35
      vertex 4.63525 14.2658 35
    endloop
  endfacet
  facet normal 0 0 1
    outer loop
      vertex -1.33796 12.7299 35
      vertex 1.33796 12.7299 35
      vertex 4.63525 14.2658 35
    endloop
  endfacet
  facet normal 0 0 1
    outer loop
      vertex 4.63525 14.2658 35
      vertex 3.95542 12.1735 35
      vertex 7.5 12.9904 35
    endloop
  endfacet
  facet normal 0 0 1
    outer loop
      vertex 12.5203 2.66127 35
      vertex 12.8 0 35
      vertex 15 0 35
    endloop
  endfacet
  facet normal 0 0 1
    outer loop
      vertex 7.5 12.9904 35
      vertex 6.4 11.0851 35
      vertex 10.037 11.1472 35
    endloop
  endfacet
  facet normal 0 0 1
    outer loop
      vertex -11.6934 5.20623 35
      vertex -10.3554 7.52365 35
      vertex -14.6722 3.11867 35
    endloop
  endfacet
  facet normal 0 0 1
    outer loop
      vertex 10.037 11.1472 35
      vertex 8.56487 9.51225 35
      vertex 12.1353 8.81678 35
    endloop
  endfacet
  facet normal 0 0 1
    outer loop
      vertex 12.1353 8.81678 35
      vertex 10.3554 7.52365 35
      vertex 13.7032 6.10105 35
    endloop
  endfacet
  facet normal 0 0 1
    outer loop
      vertex 13.7032 6.10105 35
      vertex 11.6934 5.20623 35
      vertex 14.6722 3.11867 35
    endloop
  endfacet
  facet normal 0 0 1
    outer loop
      vertex 14.6722 3.11867 35
      vertex 12.5203 2.66127 35
      vertex 15 0 35
    endloop
  endfacet
  facet normal 0 0 1
    outer loop
      vertex 15 0 35
      vertex 12.8 0 35
      vertex 14.6722 -3.11867 35
    endloop
  endfacet
  facet normal 0 0 1
    outer loop
      vertex 14.6722 -3.11867 35
      vertex 12.5203 -2.66127 35
      vertex 13.7032 -6.10105 35
    endloop
  endfacet
  facet normal 0 0 1
    outer loop
      vertex 6.4 11.0851 35
      vertex 8.56487 9.51225 35
      vertex 10.037 11.1472 35
    endloop
  endfacet
  facet normal 0 0 1
    outer loop
      vertex 12.5203 -2.66127 35
      vertex 11.6934 -5.20623 35
      vertex 13.7032 -6.10105 35
    endloop
  endfacet
  facet normal 0 0 1
    outer loop
      vertex 13.7032 -6.10105 35
      vertex 10.3554 -7.52365 35
      vertex 12.1353 -8.81678 35
    endloop
  endfacet
  facet normal 0 0 1
    outer loop
      vertex 12.1353 -8.81678 35
      vertex 8.56487 -9.51225 35
      vertex 10.037 -11.1472 35
    endloop
  endfacet
  facet normal 0 0 1
    outer loop
      vertex 10.037 -11.1472 35
      vertex 6.4 -11.0851 35
      vertex 7.5 -12.9904 35
    endloop
  endfacet
  facet normal 0 0 1
    outer loop
      vertex 7.5 -12.9904 35
      vertex 3.95542 -12.1735 35
      vertex 4.63525 -14.2658 35
    endloop
  endfacet
  facet normal 0 0 1
    outer loop
      vertex 4.63525 -14.2658 35
      vertex 1.33796 -12.7299 35
      vertex 1.56793 -14.9178 35
    endloop
  endfacet
  facet normal 0 0 1
    outer loop
      vertex 12.8 0 35
      vertex 12.5203 -2.66127 35
      vertex 14.6722 -3.11867 35
    endloop
  endfacet
  facet normal 0 0 1
    outer loop
      vertex 1.56793 -14.9178 35
      vertex -1.33796 -12.7299 35
      vertex -1.56793 -14.9178 35
    endloop
  endfacet
  facet normal 0 0 1
    outer loop
      vertex -1.56793 -14.9178 35
      vertex -3.95542 -12.1735 35
      vertex -4.63525 -14.2658 35
    endloop
  endfacet
  facet normal 0 0 1
    outer loop
      vertex -3.95542 -12.1735 35
      vertex -6.4 -11.0851 35
      vertex -4.63525 -14.2658 35
    endloop
  endfacet
  facet normal 0 0 1
    outer loop
      vertex -4.63525 -14.2658 35
      vertex -8.56487 -9.51225 35
      vertex -7.5 -12.9904 35
    endloop
  endfacet
  facet normal 0 0 1
    outer loop
      vertex -7.5 -12.9904 35
      vertex -10.3554 -7.52365 35
      vertex -10.037 -11.1472 35
    endloop
  endfacet
  facet normal 0 0 1
    outer loop
      vertex -10.3554 -7.52365 35
      vertex -11.6934 -5.20623 35
      vertex -10.037 -11.1472 35
    endloop
  endfacet
  facet normal 0 0 1
    outer loop
      vertex -12.5203 -2.66127 35
      vertex -12.8 0 35
      vertex -14.6722 3.11867 35
    endloop
  endfacet
  facet normal 0 0 1
    outer loop
      vertex 8.56487 -9.51225 35
      vertex 6.4 -11.0851 35
      vertex 10.037 -11.1472 35
    endloop
  endfacet
  facet normal 0 0 1
    outer loop
      vertex 6.4 -11.0851 35
      vertex 3.95542 -12.1735 35
      vertex 7.5 -12.9904 35
    endloop
  endfacet
  facet normal 0 0 1
    outer loop
      vertex 3.95542 -12.1735 35
      vertex 1.33796 -12.7299 35
      vertex 4.63525 -14.2658 35
    endloop
  endfacet
  facet normal 0 0 1
    outer loop
      vertex 1.33796 -12.7299 35
      vertex -1.33796 -12.7299 35
      vertex 1.56793 -14.9178 35
    endloop
  endfacet
  facet normal 0 0 1
    outer loop
      vertex -8.56487 -9.51225 35
      vertex -10.3554 -7.52365 35
      vertex -7.5 -12.9904 35
    endloop
  endfacet
  facet normal 0 0 1
    outer loop
      vertex -6.4 -11.0851 35
      vertex -8.56487 -9.51225 35
      vertex -4.63525 -14.2658 35
    endloop
  endfacet
  facet normal 0 0 1
    outer loop
      vertex -12.8 0 35
      vertex -12.5203 2.66127 35
      vertex -14.6722 3.11867 35
    endloop
  endfacet
  facet normal 0.994522 0.104529 0
    outer loop
      vertex -12.8 0 35
      vertex -12.5203 -2.66127 35
      vertex -12.5203 -2.66127 2
    endloop
  endfacet
  facet normal 0.994522 0.104529 0
    outer loop
      vertex -12.8 0 2
      vertex -12.8 0 35
      vertex -12.5203 -2.66127 2
    endloop
  endfacet
  facet normal 0.951057 0.309017 0
    outer loop
      vertex -12.5203 -2.66127 35
      vertex -11.6934 -5.20623 35
      vertex -11.6934 -5.20623 2
    endloop
  endfacet
  facet normal 0.951057 0.309017 0
    outer loop
      vertex -12.5203 -2.66127 2
      vertex -12.5203 -2.66127 35
      vertex -11.6934 -5.20623 2
    endloop
  endfacet
  facet normal 0.866025 0.5 0
    outer loop
      vertex -11.6934 -5.20623 35
      vertex -10.3554 -7.52365 35
      vertex -10.3554 -7.52365 2
    endloop
  endfacet
  facet normal 0.866025 0.5 0
    outer loop
      vertex -11.6934 -5.20623 2
      vertex -11.6934 -5.20623 35
      vertex -10.3554 -7.52365 2
    endloop
  endfacet
  facet normal 0.743145 0.669131 0
    outer loop
      vertex -10.3554 -7.52365 35
      vertex -8.56487 -9.51225 35
      vertex -8.56487 -9.51225 2
    endloop
  endfacet
  facet normal 0.743145 0.669131 0
    outer loop
      vertex -10.3554 -7.52365 2
      vertex -10.3554 -7.52365 35
      vertex -8.56487 -9.51225 2
    endloop
  endfacet
  facet normal 0.587785 0.809017 0
    outer loop
      vertex -6.4 -11.0851 35
      vertex -6.4 -11.0851 2
      vertex -8.56487 -9.51225 35
    endloop
  endfacet
  facet normal 0.587785 0.809017 0
    outer loop
      vertex -8.56487 -9.51225 35
      vertex -6.4 -11.0851 2
      vertex -8.56487 -9.51225 2
    endloop
  endfacet
  facet normal 0.406737 0.913545 0
    outer loop
      vertex -3.95542 -12.1735 35
      vertex -3.95542 -12.1735 2
      vertex -6.4 -11.0851 35
    endloop
  endfacet
  facet normal 0.406737 0.913545 0
    outer loop
      vertex -6.4 -11.0851 35
      vertex -3.95542 -12.1735 2
      vertex -6.4 -11.0851 2
    endloop
  endfacet
  facet normal 0.207912 0.978148 0
    outer loop
      vertex -1.33796 -12.7299 35
      vertex -1.33796 -12.7299 2
      vertex -3.95542 -12.1735 35
    endloop
  endfacet
  facet normal 0.207912 0.978148 0
    outer loop
      vertex -3.95542 -12.1735 35
      vertex -1.33796 -12.7299 2
      vertex -3.95542 -12.1735 2
    endloop
  endfacet
  facet normal 0 1 0
    outer loop
      vertex 1.33796 -12.7299 35
      vertex 1.33796 -12.7299 2
      vertex -1.33796 -12.7299 35
    endloop
  endfacet
  facet normal 0 1 0
    outer loop
      vertex -1.33796 -12.7299 35
      vertex 1.33796 -12.7299 2
      vertex -1.33796 -12.7299 2
    endloop
  endfacet
  facet normal -0.207912 0.978148 0
    outer loop
      vertex 3.95542 -12.1735 35
      vertex 3.95542 -12.1735 2
      vertex 1.33796 -12.7299 35
    endloop
  endfacet
  facet normal -0.207912 0.978148 0
    outer loop
      vertex 1.33796 -12.7299 35
      vertex 3.95542 -12.1735 2
      vertex 1.33796 -12.7299 2
    endloop
  endfacet
  facet normal -0.406737 0.913545 0
    outer loop
      vertex 6.4 -11.0851 35
      vertex 6.4 -11.0851 2
      vertex 3.95542 -12.1735 35
    endloop
  endfacet
  facet normal -0.406737 0.913545 0
    outer loop
      vertex 3.95542 -12.1735 35
      vertex 6.4 -11.0851 2
      vertex 3.95542 -12.1735 2
    endloop
  endfacet
  facet normal -0.587785 0.809017 0
    outer loop
      vertex 8.56487 -9.51225 35
      vertex 8.56487 -9.51225 2
      vertex 6.4 -11.0851 35
    endloop
  endfacet
  facet normal -0.587785 0.809017 0
    outer loop
      vertex 6.4 -11.0851 35
      vertex 8.56487 -9.51225 2
      vertex 6.4 -11.0851 2
    endloop
  endfacet
  facet normal -0.743145 0.669131 0
    outer loop
      vertex 10.3554 -7.52365 35
      vertex 10.3554 -7.52365 2
      vertex 8.56487 -9.51225 35
    endloop
  endfacet
  facet normal -0.743145 0.669131 0
    outer loop
      vertex 8.56487 -9.51225 35
      vertex 10.3554 -7.52365 2
      vertex 8.56487 -9.51225 2
    endloop
  endfacet
  facet normal -0.866025 0.5 0
    outer loop
      vertex 11.6934 -5.20623 35
      vertex 11.6934 -5.20623 2
      vertex 10.3554 -7.52365 35
    endloop
  endfacet
  facet normal -0.866025 0.5 0
    outer loop
      vertex 10.3554 -7.52365 35
      vertex 11.6934 -5.20623 2
      vertex 10.3554 -7.52365 2
    endloop
  endfacet
  facet normal -0.951057 0.309017 0
    outer loop
      vertex 12.5203 -2.66127 35
      vertex 12.5203 -2.66127 2
      vertex 11.6934 -5.20623 35
    endloop
  endfacet
  facet normal -0.951057 0.309017 0
    outer loop
      vertex 11.6934 -5.20623 35
      vertex 12.5203 -2.66127 2
      vertex 11.6934 -5.20623 2
    endloop
  endfacet
  facet normal -0.994522 0.104529 0
    outer loop
      vertex 12.8 0 35
      vertex 12.8 0 2
      vertex 12.5203 -2.66127 35
    endloop
  endfacet
  facet normal -0.994522 0.104529 0
    outer loop
      vertex 12.5203 -2.66127 35
      vertex 12.8 0 2
      vertex 12.5203 -2.66127 2
    endloop
  endfacet
  facet normal -0.994522 -0.104529 0
    outer loop
      vertex 12.8 0 35
      vertex 12.5203 2.66127 35
      vertex 12.8 0 2
    endloop
  endfacet
  facet normal -0.994522 -0.104529 0
    outer loop
      vertex 12.8 0 2
      vertex 12.5203 2.66127 35
      vertex 12.5203 2.66127 2
    endloop
  endfacet
  facet normal -0.951057 -0.309017 0
    outer loop
      vertex 12.5203 2.66127 35
      vertex 11.6934 5.20623 35
      vertex 12.5203 2.66127 2
    endloop
  endfacet
  facet normal -0.951057 -0.309017 0
    outer loop
      vertex 12.5203 2.66127 2
      vertex 11.6934 5.20623 35
      vertex 11.6934 5.20623 2
    endloop
  endfacet
  facet normal -0.866025 -0.5 0
    outer loop
      vertex 11.6934 5.20623 35
      vertex 10.3554 7.52365 35
      vertex 11.6934 5.20623 2
    endloop
  endfacet
  facet normal -0.866025 -0.5 0
    outer loop
      vertex 11.6934 5.20623 2
      vertex 10.3554 7.52365 35
      vertex 10.3554 7.52365 2
    endloop
  endfacet
  facet normal -0.743145 -0.669131 0
    outer loop
      vertex 10.3554 7.52365 35
      vertex 8.56487 9.51225 35
      vertex 10.3554 7.52365 2
    endloop
  endfacet
  facet normal -0.743145 -0.669131 0
    outer loop
      vertex 10.3554 7.52365 2
      vertex 8.56487 9.51225 35
      vertex 8.56487 9.51225 2
    endloop
  endfacet
  facet normal -0.587785 -0.809017 0
    outer loop
      vertex 8.56487 9.51225 2
      vertex 8.56487 9.51225 35
      vertex 6.4 11.0851 35
    endloop
  endfacet
  facet normal -0.587785 -0.809017 0
    outer loop
      vertex 6.4 11.0851 2
      vertex 8.56487 9.51225 2
      vertex 6.4 11.0851 35
    endloop
  endfacet
  facet normal -0.406737 -0.913545 0
    outer loop
      vertex 6.4 11.0851 2
      vertex 6.4 11.0851 35
      vertex 3.95542 12.1735 35
    endloop
  endfacet
  facet normal -0.406737 -0.913545 0
    outer loop
      vertex 3.95542 12.1735 2
      vertex 6.4 11.0851 2
      vertex 3.95542 12.1735 35
    endloop
  endfacet
  facet normal -0.207912 -0.978148 0
    outer loop
      vertex 3.95542 12.1735 2
      vertex 3.95542 12.1735 35
      vertex 1.33796 12.7299 35
    endloop
  endfacet
  facet normal -0.207912 -0.978148 0
    outer loop
      vertex 1.33796 12.7299 2
      vertex 3.95542 12.1735 2
      vertex 1.33796 12.7299 35
    endloop
  endfacet
  facet normal 0 -1 0
    outer loop
      vertex 1.33796 12.7299 2
      vertex 1.33796 12.7299 35
      vertex -1.33796 12.7299 35
    endloop
  endfacet
  facet normal 0 -1 0
    outer loop
      vertex -1.33796 12.7299 2
      vertex 1.33796 12.7299 2
      vertex -1.33796 12.7299 35
    endloop
  endfacet
  facet normal 0.207912 -0.978148 0
    outer loop
      vertex -1.33796 12.7299 2
      vertex -1.33796 12.7299 35
      vertex -3.95542 12.1735 35
    endloop
  endfacet
  facet normal 0.207912 -0.978148 0
    outer loop
      vertex -3.95542 12.1735 2
      vertex -1.33796 12.7299 2
      vertex -3.95542 12.1735 35
    endloop
  endfacet
  facet normal 0.406737 -0.913545 0
    outer loop
      vertex -3.95542 12.1735 2
      vertex -3.95542 12.1735 35
      vertex -6.4 11.0851 35
    endloop
  endfacet
  facet normal 0.406737 -0.913545 0
    outer loop
      vertex -6.4 11.0851 2
      vertex -3.95542 12.1735 2
      vertex -6.4 11.0851 35
    endloop
  endfacet
  facet normal 0.587785 -0.809017 0
    outer loop
      vertex -6.4 11.0851 2
      vertex -6.4 11.0851 35
      vertex -8.56487 9.51225 35
    endloop
  endfacet
  facet normal 0.587785 -0.809017 0
    outer loop
      vertex -8.56487 9.51225 2
      vertex -6.4 11.0851 2
      vertex -8.56487 9.51225 35
    endloop
  endfacet
  facet normal 0.743145 -0.669131 0
    outer loop
      vertex -8.56487 9.51225 2
      vertex -8.56487 9.51225 35
      vertex -10.3554 7.52365 35
    endloop
  endfacet
  facet normal 0.743145 -0.669131 0
    outer loop
      vertex -10.3554 7.52365 2
      vertex -8.56487 9.51225 2
      vertex -10.3554 7.52365 35
    endloop
  endfacet
  facet normal 0.866025 -0.5 0
    outer loop
      vertex -10.3554 7.52365 2
      vertex -10.3554 7.52365 35
      vertex -11.6934 5.20623 35
    endloop
  endfacet
  facet normal 0.866025 -0.5 0
    outer loop
      vertex -11.6934 5.20623 2
      vertex -10.3554 7.52365 2
      vertex -11.6934 5.20623 35
    endloop
  endfacet
  facet normal 0.951057 -0.309017 0
    outer loop
      vertex -11.6934 5.20623 2
      vertex -11.6934 5.20623 35
      vertex -12.5203 2.66127 35
    endloop
  endfacet
  facet normal 0.951057 -0.309017 0
    outer loop
      vertex -12.5203 2.66127 2
      vertex -11.6934 5.20623 2
      vertex -12.5203 2.66127 35
    endloop
  endfacet
  facet normal 0.994522 -0.104529 0
    outer loop
      vertex -12.5203 2.66127 2
      vertex -12.5203 2.66127 35
      vertex -12.8 0 35
    endloop
  endfacet
  facet normal 0.994522 -0.104529 0
    outer loop
      vertex -12.8 0 2
      vertex -12.5203 2.66127 2
      vertex -12.8 0 35
    endloop
  endfacet
  facet normal 0 0 1
    outer loop
      vertex -12.5203 -2.66127 2
      vertex -11.6934 -5.20623 2
      vertex -10.3554 -7.52365 2
    endloop
  endfacet
  facet normal 0 0 1
    outer loop
      vertex -6.4 -11.0851 2
      vertex -12.5203 -2.66127 2
      vertex -8.56487 -9.51225 2
    endloop
  endfacet
  facet normal 0 0 1
    outer loop
      vertex -8.56487 -9.51225 2
      vertex -12.5203 -2.66127 2
      vertex -10.3554 -7.52365 2
    endloop
  endfacet
  facet normal 0 0 1
    outer loop
      vertex -3.95542 -12.1735 2
      vertex -12.5203 -2.66127 2
      vertex -6.4 -11.0851 2
    endloop
  endfacet
  facet normal 0 0 1
    outer loop
      vertex -1.33796 -12.7299 2
      vertex -12.5203 -2.66127 2
      vertex -3.95542 -12.1735 2
    endloop
  endfacet
  facet normal 0 0 1
    outer loop
      vertex 1.33796 -12.7299 2
      vertex -12.5203 -2.66127 2
      vertex -1.33796 -12.7299 2
    endloop
  endfacet
  facet normal 0 0 1
    outer loop
      vertex 3.95542 -12.1735 2
      vertex -12.5203 -2.66127 2
      vertex 1.33796 -12.7299 2
    endloop
  endfacet
  facet normal 0 0 1
    outer loop
      vertex 6.4 -11.0851 2
      vertex -12.5203 -2.66127 2
      vertex 3.95542 -12.1735 2
    endloop
  endfacet
  facet normal 0 0 1
    outer loop
      vertex 8.56487 -9.51225 2
      vertex -12.5203 -2.66127 2
      vertex 6.4 -11.0851 2
    endloop
  endfacet
  facet normal 0 0 1
    outer loop
      vertex 10.3554 -7.52365 2
      vertex -12.5203 -2.66127 2
      vertex 8.56487 -9.51225 2
    endloop
  endfacet
  facet normal 0 0 1
    outer loop
      vertex 11.6934 -5.20623 2
      vertex -12.5203 -2.66127 2
      vertex 10.3554 -7.52365 2
    endloop
  endfacet
  facet normal 0 0 1
    outer loop
      vertex 12.5203 -2.66127 2
      vertex -12.5203 -2.66127 2
      vertex 11.6934 -5.20623 2
    endloop
  endfacet
  facet normal 0 0 1
    outer loop
      vertex 12.8 0 2
      vertex -12.5203 -2.66127 2
      vertex 12.5203 -2.66127 2
    endloop
  endfacet
  facet normal 0 0 1
    outer loop
      vertex 12.5203 2.66127 2
      vertex -12.5203 -2.66127 2
      vertex 12.8 0 2
    endloop
  endfacet
  facet normal 0 0 1
    outer loop
      vertex 11.6934 5.20623 2
      vertex -12.5203 -2.66127 2
      vertex 12.5203 2.66127 2
    endloop
  endfacet
  facet normal 0 0 1
    outer loop
      vertex 10.3554 7.52365 2
      vertex -12.5203 -2.66127 2
      vertex 11.6934 5.20623 2
    endloop
  endfacet
  facet normal 0 0 1
    outer loop
      vertex 8.56487 9.51225 2
      vertex -12.5203 -2.66127 2
      vertex 10.3554 7.52365 2
    endloop
  endfacet
  facet normal 0 0 1
    outer loop
      vertex 6.4 11.0851 2
      vertex -12.5203 -2.66127 2
      vertex 8.56487 9.51225 2
    endloop
  endfacet
  facet normal 0 0 1
    outer loop
      vertex 3.95542 12.1735 2
      vertex -12.5203 -2.66127 2
      vertex 6.4 11.0851 2
    endloop
  endfacet
  facet normal 0 0 1
    outer loop
      vertex 1.33796 12.7299 2
      vertex -12.5203 -2.66127 2
      vertex 3.95542 12.1735 2
    endloop
  endfacet
  facet normal 0 0 1
    outer loop
      vertex -1.33796 12.7299 2
      vertex -12.5203 -2.66127 2
      vertex 1.33796 12.7299 2
    endloop
  endfacet
  facet normal 0 0 1
    outer loop
      vertex -3.95542 12.1735 2
      vertex -12.5203 -2.66127 2
      vertex -1.33796 12.7299 2
    endloop
  endfacet
  facet normal 0 0 1
    outer loop
      vertex -6.4 11.0851 2
      vertex -12.5203 -2.66127 2
      vertex -3.95542 12.1735 2
    endloop
  endfacet
  facet normal 0 0 1
    outer loop
      vertex -8.56487 9.51225 2
      vertex -12.5203 -2.66127 2
      vertex -6.4 11.0851 2
    endloop
  endfacet
  facet normal 0 0 1
    outer loop
      vertex -10.3554 7.52365 2
      vertex -12.5203 -2.66127 2
      vertex -8.56487 9.51225 2
    endloop
  endfacet
  facet normal 0 0 1
    outer loop
      vertex -11.6934 5.20623 2
      vertex -12.5203 -2.66127 2
      vertex -10.3554 7.52365 2
    endloop
  endfacet
  facet normal 0 0 1
    outer loop
      vertex -12.5203 2.66127 2
      vertex -12.5203 -2.66127 2
      vertex -11.6934 5.20623 2
    endloop
  endfacet
  facet normal 0 0 1
    outer loop
      vertex -12.8 0 2
      vertex -12.5203 -2.66127 2
      vertex -12.5203 2.66127 2
    endloop
  endfacet
endsolid OpenSCAD_Model
